<?xml version="1.0" encoding="utf-8"?>
<!-- Generator: Adobe Illustrator 24.0.2, SVG Export Plug-In . SVG Version: 6.00 Build 0)  -->
<svg version="1.1" id="Layer_1" xmlns="http://www.w3.org/2000/svg" xmlns:xlink="http://www.w3.org/1999/xlink" x="0px" y="0px"
	 viewBox="0 0 259.78 165.95" style="enable-background:new 0 0 259.78 165.95;" xml:space="preserve">
<style type="text/css">
	.st0{fill:#335440;}
	.st1{fill:#B19D83;}
	.st2{fill:#466751;}
</style>
<g>
	<path class="st0" d="M151.3,87.89h-44.3c-0.81,0-1.46-0.65-1.46-1.46v-0.33c0-0.81,0.65-1.46,1.46-1.46h44.3
		c0.81,0,1.46,0.65,1.46,1.46v0.33C152.77,87.23,152.11,87.89,151.3,87.89z"/>
	<path class="st0" d="M130.79,85.71h-3.2V37.88c0-0.75,0.26-1.49,0.73-2.07l0.87-1.09l0.87,1.09c0.47,0.59,0.73,1.32,0.73,2.07
		V85.71z"/>
	<path class="st1" d="M130.79,37.57l0.22-0.37c0.78-1.32,1.73-2.54,2.82-3.61l0.35-0.34l-0.16,14.85l-3.22,3.4V37.57z"/>
	<path class="st0" d="M130.79,51.5l3.94-4.14c0.6-0.63,1.32-1.14,2.12-1.5v0c1.52-0.69,3.13-1.15,4.78-1.38l1.17-0.16l-12.02,11.91
		V51.5z"/>
	<polygon class="st1" points="130.79,59.23 147.46,42.84 149.25,46 130.79,64.02 	"/>
	<path class="st1" d="M130.79,66.94l17.29-16.93c0.52-0.51,1.14-0.9,1.82-1.15l4.48-1.65l-3.46,4.82c-0.18,0.25-0.38,0.48-0.59,0.69
		l-19.54,19.01V66.94z"/>
	<g>
		<path class="st2" d="M136.83,76.99c2.52-0.71,5.68-1.8,8.73-3.42c6.61-3.5,10.37-10.54,10.37-10.54l-0.42-0.02
			c-1.18,0.15-3.97,0.85-8.33,4.04C143.15,70,139.06,74.43,136.83,76.99z"/>
		<path class="st0" d="M146.21,65.13L146.21,65.13c-0.87,0.49-1.67,1.1-2.38,1.79l-11.48,11.12c0.8-0.14,2.43-0.47,4.48-1.05
			c2.23-2.56,6.32-6.99,10.34-9.93c4.36-3.19,7.16-3.89,8.33-4.04l-0.47-0.02C151.95,62.86,148.89,63.6,146.21,65.13z"/>
	</g>
	<circle class="st2" cx="149.25" cy="43.09" r="3.38"/>
	<circle class="st2" cx="140.02" cy="37.61" r="4.38"/>
	<circle class="st2" cx="129.19" cy="27.93" r="4.76"/>
	<g>
		<path class="st1" d="M150.52,55.55l-19.73,19.2v3.58c0.46-0.07,1-0.17,1.53-0.28l20.44-19.8L150.52,55.55z"/>
	</g>
	<circle class="st2" cx="151.61" cy="56.89" r="2.77"/>
	<path class="st1" d="M127.59,37.57l-0.22-0.37c-0.78-1.32-1.73-2.54-2.82-3.61l-0.35-0.34l0.16,14.85l3.22,3.4V37.57z"/>
	<path class="st0" d="M127.59,51.5l-3.94-4.14c-0.6-0.63-1.32-1.14-2.12-1.5l0,0c-1.52-0.69-3.13-1.15-4.78-1.38l-1.17-0.16
		l12.02,11.91V51.5z"/>
	<polygon class="st1" points="127.59,59.23 110.92,42.84 109.13,46 127.59,64.02 	"/>
	<path class="st1" d="M127.59,66.94L110.3,50.01c-0.52-0.51-1.14-0.9-1.82-1.15L104,47.21l3.46,4.82c0.18,0.25,0.38,0.48,0.59,0.69
		l19.54,19.01V66.94z"/>
	<g>
		<path class="st2" d="M121.55,76.99c-2.52-0.71-5.68-1.8-8.73-3.42c-6.61-3.5-10.37-10.54-10.37-10.54l0.42-0.02
			c1.18,0.15,3.97,0.85,8.33,4.04C115.23,70,119.32,74.43,121.55,76.99z"/>
		<path class="st0" d="M112.17,65.13L112.17,65.13c0.87,0.49,1.67,1.1,2.38,1.79l11.48,11.12c-0.8-0.14-2.43-0.47-4.48-1.05
			c-2.23-2.56-6.32-6.99-10.34-9.93c-4.36-3.19-7.16-3.89-8.33-4.04l0.47-0.02C106.43,62.86,109.49,63.6,112.17,65.13z"/>
	</g>
	<circle class="st2" cx="109.13" cy="43.09" r="3.38"/>
	<circle class="st2" cx="118.36" cy="37.61" r="4.38"/>
	<g>
		<path class="st1" d="M107.86,55.55l19.73,19.2v3.58c-0.46-0.07-1-0.17-1.53-0.28l-20.44-19.8L107.86,55.55z"/>
	</g>
	<circle class="st2" cx="106.77" cy="56.89" r="2.77"/>
</g>
<g>
	<g>
		<g>
			<path class="st0" d="M28.54,108.09c0,0.53,0.2,0.97,0.6,1.33c0.4,0.36,0.93,0.67,1.59,0.93c0.66,0.26,1.4,0.52,2.21,0.77
				c0.81,0.25,1.61,0.55,2.4,0.9c0.79,0.35,1.52,0.78,2.18,1.29c0.66,0.52,1.2,1.16,1.61,1.94c0.41,0.78,0.62,1.73,0.62,2.84
				c0,1.64-0.42,2.98-1.26,4.03c-0.84,1.04-1.97,1.81-3.38,2.31c-1.41,0.49-2.96,0.74-4.64,0.74c-1.16,0-2.35-0.11-3.57-0.33
				c-1.22-0.22-2.42-0.55-3.6-1l0.19-6.38h3.13l0.76,3.73l-0.5-0.85c0.59,0.27,1.22,0.48,1.89,0.63s1.33,0.22,1.96,0.22
				c0.67,0,1.28-0.09,1.83-0.27c0.55-0.18,0.99-0.44,1.33-0.79c0.34-0.35,0.51-0.78,0.51-1.31c0-0.59-0.2-1.07-0.6-1.44
				s-0.93-0.68-1.59-0.95s-1.39-0.51-2.2-0.74c-0.8-0.23-1.59-0.51-2.38-0.84c-0.79-0.33-1.52-0.74-2.18-1.25
				c-0.66-0.5-1.2-1.14-1.59-1.91c-0.4-0.77-0.6-1.73-0.6-2.89c0-1.56,0.37-2.84,1.11-3.84c0.74-1,1.74-1.75,3.02-2.24
				c1.27-0.49,2.71-0.74,4.31-0.74c1.12,0,2.3,0.12,3.55,0.35c1.25,0.23,2.49,0.58,3.71,1.04l-0.35,5.87h-3.25l-0.76-3.28l0.57,0.54
				c-0.48-0.17-1-0.3-1.53-0.39c-0.54-0.09-1.08-0.14-1.63-0.14c-0.61,0-1.18,0.07-1.71,0.21c-0.53,0.14-0.95,0.36-1.26,0.68
				C28.7,107.17,28.54,107.58,28.54,108.09z"/>
			<path class="st0" d="M50.21,117.15H47.9l1.11-0.82v5.78l-0.76-1.01l3.51,0.92v2.72H41.4v-2.72l2.94-0.98l-0.82,1.07v-17.02
				l0.95,1.14l-3.06-0.95v-2.72l7.71-0.16h2.53c1.81,0,3.29,0.32,4.44,0.95s1.99,1.48,2.53,2.54c0.54,1.06,0.81,2.26,0.81,3.58
				c0,1.41-0.32,2.7-0.96,3.87c-0.64,1.17-1.64,2.1-2.98,2.78C54.1,116.81,52.35,117.15,50.21,117.15z M50.78,106.28h-2.59
				l0.82-0.82v8.59l-1.11-0.82h2.31c1.2,0,2.1-0.34,2.7-1.01c0.6-0.67,0.9-1.56,0.9-2.65c0-1.01-0.26-1.81-0.77-2.4
				C52.52,106.58,51.76,106.28,50.78,106.28z"/>
			<path class="st0" d="M85.74,105.12l-2.84,1.14l0.73-1.39v17.24l-0.73-1.04l2.84,0.95v2.72h-9.25v-2.72l2.97-0.98l-0.88,1.07
				v-13.93l0.85,0.03l-5.08,10.74l-3.41,0.16l-4.86-10.93h0.79v13.93l-0.57-0.98l2.68,0.88v2.72h-8.62v-2.72l2.84-0.95l-0.73,1.04
				v-17.24l0.73,1.36l-2.84-0.95v-2.72l8.84-0.16l4.39,11.21h-0.63l4.67-11.05l8.12-0.16V105.12z"/>
			<path class="st0" d="M98.81,108.09c0,0.53,0.2,0.97,0.6,1.33c0.4,0.36,0.93,0.67,1.59,0.93c0.66,0.26,1.4,0.52,2.21,0.77
				c0.81,0.25,1.61,0.55,2.4,0.9c0.79,0.35,1.52,0.78,2.18,1.29c0.66,0.52,1.2,1.16,1.61,1.94c0.41,0.78,0.62,1.73,0.62,2.84
				c0,1.64-0.42,2.98-1.26,4.03c-0.84,1.04-1.97,1.81-3.38,2.31c-1.41,0.49-2.96,0.74-4.64,0.74c-1.16,0-2.35-0.11-3.57-0.33
				c-1.22-0.22-2.42-0.55-3.6-1l0.19-6.38h3.13l0.76,3.73l-0.5-0.85c0.59,0.27,1.22,0.48,1.89,0.63s1.33,0.22,1.96,0.22
				c0.67,0,1.28-0.09,1.83-0.27c0.55-0.18,0.99-0.44,1.33-0.79c0.34-0.35,0.51-0.78,0.51-1.31c0-0.59-0.2-1.07-0.6-1.44
				s-0.93-0.68-1.59-0.95s-1.39-0.51-2.2-0.74c-0.8-0.23-1.59-0.51-2.38-0.84c-0.79-0.33-1.52-0.74-2.18-1.25
				c-0.66-0.5-1.2-1.14-1.59-1.91c-0.4-0.77-0.6-1.73-0.6-2.89c0-1.56,0.37-2.84,1.11-3.84c0.74-1,1.74-1.75,3.02-2.24
				c1.27-0.49,2.71-0.74,4.31-0.74c1.12,0,2.3,0.12,3.55,0.35c1.25,0.23,2.49,0.58,3.71,1.04l-0.35,5.87h-3.25l-0.76-3.28l0.57,0.54
				c-0.48-0.17-1-0.3-1.53-0.39c-0.54-0.09-1.08-0.14-1.63-0.14c-0.61,0-1.18,0.07-1.71,0.21c-0.53,0.14-0.95,0.36-1.26,0.68
				C98.97,107.17,98.81,107.58,98.81,108.09z"/>
			<path class="st0" d="M120.32,107.36c2.61,0,4.63,0.74,6.05,2.23c1.42,1.48,2.13,3.61,2.13,6.36c0,1.92-0.35,3.56-1.06,4.93
				c-0.71,1.37-1.71,2.42-3.02,3.16c-1.31,0.74-2.86,1.1-4.67,1.1c-2.59,0-4.58-0.74-5.99-2.23s-2.1-3.6-2.1-6.36
				c0-1.94,0.34-3.59,1.03-4.96c0.68-1.37,1.67-2.42,2.97-3.14C116.96,107.72,118.51,107.36,120.32,107.36z M120.1,111.12
				c-1.01,0-1.74,0.41-2.18,1.22s-0.66,2.13-0.66,3.96s0.21,3.14,0.65,3.92c0.43,0.78,1.13,1.17,2.1,1.17c0.7,0,1.25-0.18,1.67-0.55
				s0.73-0.94,0.93-1.71s0.3-1.75,0.3-2.95c0-1.81-0.22-3.11-0.66-3.88C121.8,111.51,121.09,111.12,120.1,111.12z"/>
			<path class="st0" d="M136.84,121.67l-0.35-0.44l2.27,0.79v2.72h-9.22v-2.72l2.27-0.79l-0.35,0.44v-18.22l0.32,0.32l-2.24-0.73
				v-2.68l7.29-0.32V121.67z"/>
			<path class="st0" d="M146.25,125.14c-1.41,0-2.6-0.46-3.57-1.39c-0.97-0.93-1.45-2.34-1.45-4.23v-8.81l0.47,0.73l-2.4-0.85v-2.68
				l7.3-0.25v11.02c0,0.82,0.18,1.43,0.55,1.83c0.37,0.4,0.86,0.6,1.47,0.6c0.46,0,0.97-0.12,1.53-0.36
				c0.56-0.24,1.12-0.62,1.69-1.12l-0.32,0.88v-9.92l0.44,0.85l-2.37-0.85v-2.68l7.29-0.28v14.37l-0.63-0.88l2.53,0.92v2.72
				l-6.1,0.28l-0.69-3.09l0.73,0.22c-1.03,1.01-2.11,1.76-3.24,2.26C148.36,124.89,147.28,125.14,146.25,125.14z"/>
			<path class="st0" d="M166.43,125.14c-1.6,0-2.81-0.48-3.62-1.44c-0.81-0.96-1.22-2.38-1.22-4.28v-8.81l0.66,0.66h-2.94v-2.81
				l3-0.92l-0.73,0.92v-4.39l5.37-0.98v5.37l-0.54-0.7h4.77l-0.09,3.51h-4.67l0.54-0.66v8.08c0,0.88,0.14,1.53,0.41,1.93
				c0.27,0.4,0.69,0.6,1.26,0.6c0.32,0,0.67-0.05,1.06-0.14c0.39-0.09,0.83-0.23,1.31-0.4l0.98,2.87
				C170.07,124.61,168.22,125.14,166.43,125.14z"/>
			<path class="st0" d="M180.32,121.67l-0.35-0.44l2.27,0.79v2.72h-9.22v-2.72l2.27-0.79l-0.35,0.44v-10.64l0.32,0.32l-2.24-0.76
				v-2.68l7.29-0.25V121.67z M177.55,105.65c-0.91,0-1.64-0.26-2.2-0.77c-0.56-0.52-0.84-1.26-0.84-2.23c0-1.01,0.29-1.76,0.87-2.26
				c0.58-0.49,1.31-0.74,2.19-0.74c0.86,0,1.58,0.24,2.15,0.73c0.57,0.48,0.85,1.24,0.85,2.27c0,0.99-0.29,1.74-0.87,2.24
				C179.13,105.4,178.41,105.65,177.55,105.65z"/>
			<path class="st0" d="M191.95,107.36c2.61,0,4.63,0.74,6.05,2.23c1.42,1.48,2.13,3.61,2.13,6.36c0,1.92-0.35,3.56-1.06,4.93
				c-0.71,1.37-1.71,2.42-3.02,3.16c-1.31,0.74-2.86,1.1-4.67,1.1c-2.59,0-4.58-0.74-5.99-2.23s-2.1-3.6-2.1-6.36
				c0-1.94,0.34-3.59,1.03-4.96c0.68-1.37,1.67-2.42,2.97-3.14C188.58,107.72,190.13,107.36,191.95,107.36z M191.72,111.12
				c-1.01,0-1.74,0.41-2.18,1.22s-0.66,2.13-0.66,3.96s0.21,3.14,0.65,3.92c0.43,0.78,1.13,1.17,2.1,1.17c0.7,0,1.25-0.18,1.67-0.55
				s0.73-0.94,0.93-1.71s0.3-1.75,0.3-2.95c0-1.81-0.22-3.11-0.66-3.88C193.43,111.51,192.71,111.12,191.72,111.12z"/>
			<path class="st0" d="M201.61,124.73v-2.72l2.56-0.85l-0.63,0.76v-11.31l0.63,0.85l-2.56-0.88v-2.68l6.09-0.28l0.66,2.97
				l-0.66-0.22c1.01-1.01,2.08-1.76,3.22-2.26c1.14-0.49,2.22-0.74,3.25-0.74c1.41,0,2.6,0.45,3.57,1.36s1.44,2.28,1.42,4.14v9.06
				l-0.44-0.73l2.37,0.82v2.72h-8.94v-2.72l2.24-0.79l-0.57,0.79v-8.05c0-0.88-0.19-1.53-0.57-1.94c-0.38-0.41-0.87-0.62-1.48-0.62
				c-0.48,0-1.01,0.13-1.56,0.38c-0.56,0.25-1.11,0.62-1.66,1.1l0.35-0.73v9.85l-0.47-0.76l2.12,0.76v2.72H201.61z"/>
			<path class="st0" d="M227.79,112.16c0,0.4,0.21,0.73,0.62,0.99c0.41,0.26,0.95,0.49,1.61,0.68s1.37,0.39,2.13,0.62
				c0.76,0.22,1.47,0.52,2.13,0.9c0.66,0.38,1.21,0.87,1.63,1.48c0.42,0.61,0.63,1.4,0.63,2.37c0,1.35-0.36,2.46-1.09,3.35
				c-0.73,0.88-1.71,1.54-2.94,1.97c-1.23,0.43-2.63,0.65-4.19,0.65c-0.91,0-1.86-0.08-2.86-0.24c-1-0.16-2.03-0.37-3.08-0.65
				l0.19-4.99h3.32l0.41,2.65l-0.44-0.73c0.4,0.15,0.84,0.25,1.33,0.32c0.48,0.06,0.89,0.09,1.23,0.09c0.46,0,0.9-0.05,1.33-0.14
				c0.42-0.09,0.76-0.25,1.01-0.47c0.25-0.22,0.38-0.5,0.38-0.84c0-0.42-0.21-0.76-0.63-1.01c-0.42-0.25-0.96-0.47-1.63-0.65
				c-0.66-0.18-1.36-0.38-2.08-0.62s-1.42-0.54-2.08-0.93c-0.66-0.39-1.2-0.92-1.61-1.58c-0.41-0.66-0.62-1.51-0.62-2.54
				c0-1.3,0.32-2.36,0.95-3.17s1.5-1.41,2.61-1.78s2.33-0.57,3.68-0.57c0.95,0,1.93,0.08,2.95,0.24s2.07,0.39,3.14,0.71l-0.16,4.52
				h-3.41l-0.54-2.43l0.73,0.79c-0.95-0.25-1.76-0.38-2.43-0.38c-0.67,0-1.21,0.12-1.61,0.36
				C227.99,111.38,227.79,111.72,227.79,112.16z"/>
		</g>
	</g>
	<g>
		<g>
			<path class="st0" d="M75.19,135.91c0,0.3,0.08,0.54,0.25,0.73c0.17,0.19,0.4,0.35,0.68,0.48c0.28,0.13,0.59,0.24,0.92,0.34
				s0.67,0.22,1.01,0.34c0.34,0.13,0.64,0.29,0.92,0.47c0.28,0.19,0.51,0.43,0.68,0.73c0.17,0.3,0.25,0.67,0.25,1.12
				c0,0.6-0.16,1.1-0.46,1.49c-0.31,0.39-0.72,0.68-1.24,0.87c-0.51,0.19-1.08,0.28-1.7,0.28c-0.43,0-0.88-0.04-1.33-0.13
				c-0.45-0.09-0.9-0.22-1.34-0.4l0.08-2.19h0.77l0.24,1.59l-0.14-0.24c0.28,0.13,0.58,0.23,0.89,0.29c0.31,0.07,0.61,0.1,0.91,0.1
				c0.37,0,0.7-0.06,1.01-0.17c0.31-0.11,0.56-0.28,0.75-0.5c0.19-0.22,0.28-0.5,0.28-0.83c0-0.31-0.08-0.57-0.25-0.77
				s-0.4-0.36-0.68-0.48c-0.28-0.13-0.59-0.24-0.92-0.34c-0.33-0.1-0.67-0.21-1-0.33c-0.34-0.12-0.64-0.27-0.92-0.45
				s-0.51-0.42-0.68-0.71c-0.17-0.29-0.26-0.66-0.26-1.1c0-0.57,0.14-1.04,0.42-1.41s0.65-0.65,1.12-0.83
				c0.47-0.18,1-0.27,1.59-0.27c0.42,0,0.85,0.04,1.29,0.13c0.45,0.09,0.89,0.22,1.32,0.4l-0.11,2.08h-0.78l-0.22-1.48l0.17,0.17
				c-0.24-0.1-0.5-0.18-0.78-0.24c-0.28-0.06-0.56-0.08-0.84-0.08c-0.33,0-0.64,0.04-0.93,0.13c-0.29,0.09-0.52,0.23-0.7,0.43
				S75.19,135.59,75.19,135.91z"/>
			<path class="st0" d="M84.04,142.78c-0.59,0-1.1-0.13-1.55-0.39c-0.45-0.26-0.79-0.64-1.05-1.15s-0.38-1.13-0.38-1.86
				c0-0.75,0.13-1.39,0.39-1.93c0.26-0.54,0.63-0.96,1.11-1.25c0.48-0.29,1.04-0.44,1.69-0.44c0.62,0,1.13,0.13,1.52,0.38
				c0.4,0.25,0.69,0.61,0.88,1.05s0.29,0.96,0.29,1.52c0,0.11,0,0.22-0.01,0.33s-0.02,0.24-0.04,0.38h-4.83v-0.88h3.69l-0.11,0.08
				c0.01-0.35-0.03-0.67-0.13-0.96s-0.25-0.52-0.47-0.7c-0.22-0.17-0.51-0.26-0.88-0.26c-0.4,0-0.73,0.11-1,0.33
				s-0.46,0.51-0.59,0.89s-0.19,0.8-0.19,1.29c0,0.52,0.07,0.97,0.22,1.36c0.14,0.39,0.36,0.69,0.66,0.91
				c0.29,0.22,0.66,0.33,1.09,0.33c0.31,0,0.64-0.06,1-0.18s0.73-0.3,1.12-0.54l0.45,0.7c-0.48,0.33-0.96,0.58-1.45,0.74
				C84.97,142.7,84.5,142.78,84.04,142.78z"/>
			<path class="st0" d="M93.35,141.96l-0.19-0.27l1.15,0.27v0.68l-1.94,0.09l-0.18-1.22l0.1,0.04c-0.37,0.42-0.76,0.73-1.19,0.93
				c-0.42,0.2-0.84,0.31-1.24,0.31c-0.49,0-0.92-0.16-1.27-0.49c-0.35-0.32-0.53-0.81-0.53-1.45c0-0.49,0.11-0.88,0.32-1.15
				c0.21-0.28,0.51-0.47,0.89-0.59c0.38-0.12,0.83-0.18,1.35-0.18h1.56l-0.12,0.14v-1.1c0-0.44-0.11-0.76-0.34-0.95
				c-0.23-0.19-0.55-0.29-0.96-0.29c-0.21,0-0.44,0.02-0.67,0.06c-0.23,0.04-0.49,0.11-0.76,0.2l0.18-0.18l-0.14,1.13h-0.84
				l-0.1-1.7c0.52-0.16,1-0.28,1.43-0.36c0.44-0.08,0.84-0.12,1.22-0.12c0.71,0,1.27,0.16,1.67,0.47s0.59,0.81,0.59,1.49V141.96z
				 M89.36,140.75c0,0.37,0.09,0.64,0.27,0.81c0.18,0.17,0.4,0.26,0.68,0.26c0.27,0,0.57-0.09,0.9-0.26
				c0.33-0.17,0.64-0.41,0.95-0.7l-0.08,0.32v-1.58l0.12,0.13h-1.35c-0.56,0-0.95,0.08-1.16,0.25
				C89.46,140.15,89.36,140.41,89.36,140.75z"/>
			<path class="st0" d="M94.97,142.65v-0.68l1.1-0.25l-0.15,0.22v-5.29l0.17,0.23l-1.11-0.27v-0.68l1.94-0.09l0.17,1.24l-0.17-0.05
				c0.38-0.4,0.76-0.71,1.13-0.93c0.37-0.22,0.77-0.33,1.19-0.33c0.27,0,0.56,0.04,0.87,0.13l-0.09,2.03h-0.78l-0.17-1.35l0.14,0.27
				c-0.06-0.02-0.12-0.03-0.19-0.04c-0.06-0.01-0.13-0.01-0.18-0.01c-0.31,0-0.62,0.1-0.92,0.29c-0.3,0.19-0.58,0.44-0.84,0.73
				l0.12-0.37v4.5l-0.17-0.22l1.35,0.25v0.68H94.97z"/>
			<path class="st0" d="M103.48,142.78c-0.55,0-1.05-0.14-1.51-0.41c-0.45-0.27-0.81-0.66-1.06-1.17c-0.26-0.51-0.39-1.13-0.39-1.85
				c0-0.64,0.09-1.18,0.27-1.63c0.18-0.45,0.43-0.82,0.74-1.11s0.66-0.5,1.05-0.64c0.39-0.14,0.8-0.2,1.22-0.2
				c0.37,0,0.75,0.05,1.14,0.15s0.73,0.22,1.01,0.36l-0.05,1.7h-0.84l-0.18-1.15l0.11,0.1c-0.18-0.08-0.38-0.14-0.6-0.18
				c-0.22-0.03-0.42-0.05-0.6-0.05c-0.42,0-0.77,0.1-1.06,0.31c-0.29,0.21-0.52,0.51-0.67,0.89c-0.15,0.39-0.23,0.84-0.23,1.37
				c0,0.54,0.08,1.01,0.25,1.39c0.17,0.38,0.39,0.67,0.68,0.86s0.62,0.29,1,0.29c0.29,0,0.6-0.06,0.93-0.18
				c0.33-0.12,0.68-0.3,1.03-0.55l0.45,0.68c-0.46,0.35-0.91,0.61-1.37,0.77C104.37,142.69,103.92,142.78,103.48,142.78z"/>
			<path class="st0" d="M106.65,142.65v-0.68l1.14-0.27l-0.18,0.22v-8.34l0.18,0.23l-1.14-0.27v-0.68l2.23-0.09v4.3l-0.28-0.06
				c0.41-0.43,0.84-0.74,1.31-0.94c0.46-0.2,0.9-0.31,1.32-0.31c0.37,0,0.71,0.08,1.01,0.24c0.3,0.16,0.54,0.39,0.71,0.7
				c0.17,0.31,0.25,0.71,0.24,1.19v4.03l-0.14-0.2l1.1,0.25v0.68h-3.13v-0.68l1.06-0.25l-0.17,0.22v-3.76
				c0.01-0.49-0.1-0.85-0.33-1.08c-0.23-0.23-0.52-0.34-0.89-0.34c-0.28,0-0.59,0.08-0.93,0.24c-0.34,0.16-0.67,0.4-0.99,0.73
				l0.1-0.24v4.46l-0.14-0.2l1.03,0.24v0.68H106.65z"/>
			<path class="st0" d="M117.85,142.78c-0.59,0-1.1-0.13-1.55-0.39c-0.45-0.26-0.79-0.64-1.05-1.15s-0.38-1.13-0.38-1.86
				c0-0.75,0.13-1.39,0.39-1.93c0.26-0.54,0.63-0.96,1.11-1.25c0.48-0.29,1.04-0.44,1.69-0.44c0.62,0,1.13,0.13,1.52,0.38
				c0.4,0.25,0.69,0.61,0.88,1.05s0.29,0.96,0.29,1.52c0,0.11,0,0.22-0.01,0.33s-0.02,0.24-0.04,0.38h-4.83v-0.88h3.69l-0.11,0.08
				c0.01-0.35-0.03-0.67-0.13-0.96s-0.25-0.52-0.47-0.7c-0.22-0.17-0.51-0.26-0.88-0.26c-0.4,0-0.73,0.11-1,0.33
				s-0.46,0.51-0.59,0.89s-0.19,0.8-0.19,1.29c0,0.52,0.07,0.97,0.22,1.36c0.14,0.39,0.36,0.69,0.66,0.91
				c0.29,0.22,0.66,0.33,1.09,0.33c0.31,0,0.64-0.06,1-0.18s0.73-0.3,1.12-0.54l0.45,0.7c-0.48,0.33-0.96,0.58-1.45,0.74
				C118.79,142.7,118.31,142.78,117.85,142.78z"/>
			<path class="st0" d="M123.27,137.55c0,0.25,0.08,0.44,0.26,0.58c0.17,0.14,0.39,0.26,0.66,0.35c0.27,0.09,0.56,0.19,0.87,0.28
				c0.31,0.09,0.6,0.21,0.87,0.36c0.27,0.14,0.5,0.34,0.67,0.58s0.26,0.56,0.26,0.95c0,0.46-0.13,0.85-0.38,1.16
				c-0.25,0.31-0.59,0.55-1.03,0.72s-0.92,0.25-1.45,0.25c-0.31,0-0.65-0.03-1-0.08s-0.71-0.13-1.07-0.23l0.09-1.8h0.8l0.14,1.21
				l-0.13-0.15c0.19,0.05,0.39,0.09,0.61,0.12c0.22,0.03,0.41,0.04,0.59,0.04c0.26,0,0.51-0.04,0.75-0.11
				c0.23-0.08,0.43-0.19,0.57-0.35s0.22-0.35,0.22-0.58c0-0.25-0.09-0.46-0.26-0.61c-0.17-0.15-0.4-0.27-0.67-0.36
				s-0.56-0.19-0.86-0.28c-0.3-0.09-0.59-0.21-0.86-0.36c-0.27-0.14-0.49-0.34-0.66-0.57c-0.17-0.24-0.26-0.56-0.26-0.96
				c0-0.45,0.12-0.82,0.34-1.11s0.54-0.5,0.92-0.64c0.38-0.14,0.79-0.2,1.22-0.2c0.3,0,0.63,0.03,0.99,0.09s0.73,0.15,1.12,0.27
				l-0.06,1.54h-0.82l-0.19-1.03l0.18,0.2c-0.42-0.13-0.82-0.19-1.17-0.19c-0.38,0-0.68,0.08-0.92,0.24
				C123.39,137.05,123.27,137.27,123.27,137.55z"/>
			<path class="st0" d="M132.55,141.87l-0.12-0.15l1.07,0.25v0.68h-3.18v-0.68l1.07-0.25l-0.13,0.15v-5.14l0.11,0.12l-1.06-0.24
				v-0.68l2.22-0.08V141.87z M131.85,134.6c-0.23,0-0.42-0.07-0.57-0.22s-0.22-0.35-0.22-0.61c0-0.27,0.08-0.48,0.23-0.62
				c0.15-0.14,0.34-0.21,0.57-0.21c0.24,0,0.43,0.07,0.58,0.21c0.15,0.14,0.22,0.35,0.22,0.62c0,0.27-0.08,0.48-0.24,0.62
				C132.27,134.53,132.08,134.6,131.85,134.6z"/>
			<path class="st0" d="M134.22,142.65v-0.68l1.12-0.27l-0.18,0.22v-5.28l0.18,0.23l-1.12-0.27v-0.68l1.94-0.09l0.17,1.24
				l-0.17-0.06c0.42-0.43,0.86-0.74,1.32-0.94c0.46-0.2,0.9-0.31,1.32-0.31c0.57,0,1.04,0.17,1.42,0.52s0.56,0.89,0.55,1.62v4.02
				l-0.14-0.2l1.08,0.25v0.68h-3.11v-0.68l1.06-0.25l-0.17,0.22v-3.76c0-0.49-0.11-0.85-0.33-1.08c-0.22-0.23-0.51-0.34-0.88-0.34
				c-0.29,0-0.6,0.08-0.94,0.24s-0.67,0.4-0.99,0.72l0.09-0.23v4.46l-0.14-0.2l1.03,0.24v0.68H134.22z"/>
			<path class="st0" d="M144.68,142.78c-0.49,0-0.87-0.15-1.14-0.45c-0.27-0.3-0.4-0.75-0.4-1.36v-4.39l0.18,0.18h-1.28v-0.69
				l1.3-0.23l-0.2,0.24v-1.7l1.28-0.22v1.91l-0.15-0.19h1.98l-0.04,0.87h-1.94l0.15-0.18v4.21c0,0.36,0.07,0.62,0.2,0.78
				c0.13,0.16,0.33,0.24,0.58,0.24c0.14,0,0.3-0.02,0.48-0.07c0.17-0.05,0.36-0.12,0.57-0.21l0.25,0.73
				C145.84,142.6,145.24,142.78,144.68,142.78z"/>
			<path class="st0" d="M150.24,135.76c0.95,0,1.7,0.29,2.25,0.89c0.54,0.59,0.82,1.43,0.82,2.51c0,0.73-0.13,1.37-0.4,1.91
				c-0.26,0.54-0.64,0.97-1.13,1.26c-0.49,0.3-1.08,0.45-1.77,0.45c-0.94,0-1.68-0.29-2.21-0.87s-0.79-1.41-0.79-2.49
				c0-0.76,0.13-1.41,0.38-1.95c0.26-0.54,0.62-0.96,1.1-1.26C148.98,135.91,149.56,135.76,150.24,135.76z M150.18,136.69
				c-0.6,0-1.06,0.23-1.37,0.68s-0.47,1.11-0.47,1.97c0,0.84,0.15,1.47,0.45,1.88c0.3,0.41,0.73,0.62,1.3,0.62
				c0.42,0,0.76-0.1,1.04-0.31s0.48-0.5,0.63-0.9s0.21-0.87,0.21-1.42c0-0.84-0.15-1.47-0.46-1.89
				C151.2,136.9,150.75,136.69,150.18,136.69z"/>
			<path class="st0" d="M158.47,135.91c0,0.3,0.08,0.54,0.25,0.73c0.17,0.19,0.4,0.35,0.68,0.48c0.28,0.13,0.59,0.24,0.92,0.34
				s0.67,0.22,1.01,0.34c0.34,0.13,0.64,0.29,0.92,0.47c0.28,0.19,0.51,0.43,0.68,0.73c0.17,0.3,0.25,0.67,0.25,1.12
				c0,0.6-0.16,1.1-0.46,1.49c-0.31,0.39-0.72,0.68-1.24,0.87c-0.51,0.19-1.08,0.28-1.7,0.28c-0.43,0-0.88-0.04-1.33-0.13
				c-0.45-0.09-0.9-0.22-1.34-0.4l0.08-2.19h0.77l0.24,1.59l-0.14-0.24c0.28,0.13,0.58,0.23,0.89,0.29c0.31,0.07,0.61,0.1,0.91,0.1
				c0.37,0,0.7-0.06,1.01-0.17c0.31-0.11,0.56-0.28,0.75-0.5c0.19-0.22,0.28-0.5,0.28-0.83c0-0.31-0.08-0.57-0.25-0.77
				s-0.4-0.36-0.68-0.48c-0.28-0.13-0.59-0.24-0.92-0.34c-0.33-0.1-0.67-0.21-1-0.33c-0.34-0.12-0.64-0.27-0.92-0.45
				s-0.51-0.42-0.68-0.71c-0.17-0.29-0.26-0.66-0.26-1.1c0-0.57,0.14-1.04,0.42-1.41s0.65-0.65,1.12-0.83
				c0.47-0.18,1-0.27,1.59-0.27c0.42,0,0.85,0.04,1.29,0.13c0.45,0.09,0.89,0.22,1.32,0.4l-0.11,2.08h-0.78l-0.22-1.48l0.17,0.17
				c-0.24-0.1-0.5-0.18-0.78-0.24c-0.28-0.06-0.56-0.08-0.84-0.08c-0.33,0-0.64,0.04-0.93,0.13c-0.29,0.09-0.52,0.23-0.7,0.43
				S158.47,135.59,158.47,135.91z"/>
			<path class="st0" d="M169.52,141.96l-0.19-0.27l1.15,0.27v0.68l-1.94,0.09l-0.18-1.22l0.1,0.04c-0.37,0.42-0.76,0.73-1.19,0.93
				c-0.42,0.2-0.84,0.31-1.24,0.31c-0.49,0-0.92-0.16-1.27-0.49c-0.35-0.32-0.53-0.81-0.53-1.45c0-0.49,0.11-0.88,0.32-1.15
				c0.21-0.28,0.51-0.47,0.89-0.59c0.38-0.12,0.83-0.18,1.35-0.18h1.56l-0.12,0.14v-1.1c0-0.44-0.11-0.76-0.34-0.95
				c-0.23-0.19-0.55-0.29-0.96-0.29c-0.21,0-0.44,0.02-0.67,0.06c-0.23,0.04-0.49,0.11-0.76,0.2l0.18-0.18l-0.14,1.13h-0.84
				l-0.1-1.7c0.52-0.16,1-0.28,1.43-0.36c0.44-0.08,0.84-0.12,1.22-0.12c0.71,0,1.27,0.16,1.67,0.47s0.59,0.81,0.59,1.49V141.96z
				 M165.53,140.75c0,0.37,0.09,0.64,0.27,0.81c0.18,0.17,0.4,0.26,0.68,0.26c0.27,0,0.57-0.09,0.9-0.26
				c0.33-0.17,0.64-0.41,0.95-0.7l-0.08,0.32v-1.58l0.12,0.13h-1.35c-0.56,0-0.95,0.08-1.16,0.25
				C165.64,140.15,165.53,140.41,165.53,140.75z"/>
			<path class="st0" d="M173.2,141.87l-0.11-0.15l1.06,0.25v0.68h-3.18v-0.68l1.07-0.25l-0.11,0.15v-8.2l0.1,0.11l-1.06-0.24v-0.68
				l2.23-0.09V141.87z"/>
			<path class="st0" d="M177.94,142.78c-0.59,0-1.1-0.13-1.55-0.39c-0.45-0.26-0.79-0.64-1.05-1.15s-0.38-1.13-0.38-1.86
				c0-0.75,0.13-1.39,0.39-1.93c0.26-0.54,0.63-0.96,1.11-1.25c0.48-0.29,1.04-0.44,1.69-0.44c0.62,0,1.13,0.13,1.52,0.38
				c0.4,0.25,0.69,0.61,0.88,1.05s0.29,0.96,0.29,1.52c0,0.11,0,0.22-0.01,0.33s-0.02,0.24-0.04,0.38h-4.83v-0.88h3.69l-0.11,0.08
				c0.01-0.35-0.03-0.67-0.13-0.96s-0.25-0.52-0.47-0.7c-0.22-0.17-0.51-0.26-0.88-0.26c-0.4,0-0.73,0.11-1,0.33
				s-0.46,0.51-0.59,0.89s-0.19,0.8-0.19,1.29c0,0.52,0.07,0.97,0.22,1.36c0.14,0.39,0.36,0.69,0.66,0.91
				c0.29,0.22,0.66,0.33,1.09,0.33c0.31,0,0.64-0.06,1-0.18s0.73-0.3,1.12-0.54l0.45,0.7c-0.48,0.33-0.96,0.58-1.45,0.74
				C178.88,142.7,178.4,142.78,177.94,142.78z"/>
			<path class="st0" d="M183.36,137.55c0,0.25,0.08,0.44,0.26,0.58c0.17,0.14,0.39,0.26,0.66,0.35c0.27,0.09,0.56,0.19,0.87,0.28
				c0.31,0.09,0.6,0.21,0.87,0.36c0.27,0.14,0.5,0.34,0.67,0.58s0.26,0.56,0.26,0.95c0,0.46-0.13,0.85-0.38,1.16
				c-0.25,0.31-0.59,0.55-1.03,0.72s-0.92,0.25-1.45,0.25c-0.31,0-0.65-0.03-1-0.08s-0.71-0.13-1.07-0.23l0.09-1.8h0.8l0.14,1.21
				l-0.13-0.15c0.19,0.05,0.39,0.09,0.61,0.12c0.22,0.03,0.41,0.04,0.59,0.04c0.26,0,0.51-0.04,0.75-0.11
				c0.23-0.08,0.43-0.19,0.57-0.35s0.22-0.35,0.22-0.58c0-0.25-0.09-0.46-0.26-0.61c-0.17-0.15-0.4-0.27-0.67-0.36
				s-0.56-0.19-0.86-0.28c-0.3-0.09-0.59-0.21-0.86-0.36c-0.27-0.14-0.49-0.34-0.66-0.57c-0.17-0.24-0.26-0.56-0.26-0.96
				c0-0.45,0.12-0.82,0.34-1.11s0.54-0.5,0.92-0.64c0.38-0.14,0.79-0.2,1.22-0.2c0.3,0,0.63,0.03,0.99,0.09s0.73,0.15,1.12,0.27
				l-0.06,1.54h-0.82l-0.19-1.03l0.18,0.2c-0.42-0.13-0.82-0.19-1.17-0.19c-0.38,0-0.68,0.08-0.92,0.24
				C183.48,137.05,183.36,137.27,183.36,137.55z"/>
		</g>
	</g>
</g>
</svg>
