<?xml version="1.0" encoding="utf-8"?>
<!-- Generator: Adobe Illustrator 24.0.2, SVG Export Plug-In . SVG Version: 6.00 Build 0)  -->
<svg version="1.1" id="Layer_1" xmlns="http://www.w3.org/2000/svg" xmlns:xlink="http://www.w3.org/1999/xlink" x="0px" y="0px"
	 viewBox="0 0 500 165.95" style="enable-background:new 0 0 500 165.95;" xml:space="preserve">
<style type="text/css">
	.st0{fill:#345441;}
	.st1{fill:#B09C82;}
	.st2{fill:#466751;}
</style>
<g>
	<path class="st0" d="M96.03,133.2H25.9c-0.88,0-1.59-0.71-1.59-1.59v-1.88c0-0.88,0.71-1.59,1.59-1.59h70.13
		c0.88,0,1.59,0.71,1.59,1.59v1.88C97.61,132.49,96.9,133.2,96.03,133.2z"/>
	<path class="st0" d="M63.5,129.83h-4.97V55.58c0-1.17,0.4-2.31,1.13-3.22l1.35-1.69l1.35,1.69c0.73,0.91,1.13,2.05,1.13,3.22
		V129.83z"/>
	<path class="st1" d="M63.5,55.09l0.34-0.57c1.21-2.06,2.68-3.94,4.39-5.61l0.54-0.52L68.5,71.44l-5,5.28V55.09z"/>
	<path class="st0" d="M63.5,76.73l6.12-6.43c0.94-0.98,2.05-1.78,3.29-2.34v0c2.36-1.07,4.86-1.79,7.43-2.14l1.82-0.25L63.5,84.05
		V76.73z"/>
	<polygon class="st1" points="63.5,88.72 89.38,63.27 92.16,68.18 63.5,96.15 	"/>
	<path class="st1" d="M63.5,100.69l26.85-26.28c0.8-0.79,1.77-1.4,2.82-1.78l6.95-2.56l-5.36,7.48c-0.27,0.38-0.58,0.74-0.92,1.07
		L63.5,108.13V100.69z"/>
	<g>
		<path class="st2" d="M72.88,116.29c3.91-1.1,8.82-2.8,13.55-5.3c10.27-5.43,16.09-16.37,16.09-16.37l-0.65-0.03
			c-1.83,0.23-6.17,1.33-12.94,6.28C82.69,105.43,76.33,112.32,72.88,116.29z"/>
		<path class="st0" d="M87.44,97.88L87.44,97.88c-1.34,0.77-2.59,1.7-3.7,2.78l-17.82,17.25c1.24-0.22,3.77-0.73,6.95-1.62
			c3.46-3.97,9.81-10.85,16.06-15.42c6.77-4.95,11.11-6.05,12.94-6.28l-0.73-0.03C96.35,94.35,91.6,95.5,87.44,97.88z"/>
	</g>
	<circle class="st2" cx="92.16" cy="63.67" r="5.24"/>
	<circle class="st2" cx="77.83" cy="55.16" r="6.8"/>
	<circle class="st2" cx="61.01" cy="40.14" r="7.39"/>
	<g>
		<path class="st1" d="M94.12,83.01L63.5,112.82v5.56c0.72-0.11,1.55-0.26,2.38-0.43l31.74-30.73L94.12,83.01z"/>
	</g>
	<circle class="st2" cx="95.81" cy="85.09" r="4.3"/>
	<path class="st1" d="M58.53,55.09l-0.34-0.57c-1.21-2.06-2.68-3.94-4.39-5.61l-0.54-0.52l0.25,23.06l5,5.28V55.09z"/>
	<path class="st0" d="M58.53,76.73l-6.12-6.43c-0.94-0.98-2.05-1.78-3.29-2.34l0,0c-2.36-1.07-4.86-1.79-7.43-2.14l-1.82-0.25
		l18.65,18.49V76.73z"/>
	<polygon class="st1" points="58.53,88.72 32.65,63.27 29.87,68.18 58.53,96.15 	"/>
	<path class="st1" d="M58.53,100.69L31.68,74.41c-0.8-0.79-1.77-1.4-2.82-1.78l-6.95-2.56l5.36,7.48c0.27,0.38,0.58,0.74,0.92,1.07
		l30.34,29.51V100.69z"/>
	<g>
		<path class="st2" d="M49.15,116.29c-3.91-1.1-8.82-2.8-13.55-5.3C25.33,105.55,19.5,94.62,19.5,94.62l0.65-0.03
			c1.83,0.23,6.17,1.33,12.94,6.28C39.34,105.43,45.7,112.32,49.15,116.29z"/>
		<path class="st0" d="M34.59,97.88L34.59,97.88c1.34,0.77,2.59,1.7,3.7,2.78l17.82,17.25c-1.24-0.22-3.77-0.73-6.95-1.62
			c-3.46-3.97-9.81-10.85-16.06-15.42c-6.77-4.95-11.11-6.05-12.94-6.28l0.73-0.03C25.68,94.35,30.43,95.5,34.59,97.88z"/>
	</g>
	<circle class="st2" cx="29.87" cy="63.67" r="5.24"/>
	<circle class="st2" cx="44.2" cy="55.16" r="6.8"/>
	<g>
		<path class="st1" d="M27.9,83.01l30.63,29.81v5.56c-0.72-0.11-1.55-0.26-2.38-0.43L24.41,87.22L27.9,83.01z"/>
	</g>
	<circle class="st2" cx="26.21" cy="85.09" r="4.3"/>
</g>
<g>
	<g>
		<path class="st0" d="M129.87,72.64c0,0.89,0.34,1.63,1.01,2.24c0.67,0.6,1.57,1.13,2.69,1.57c1.12,0.44,2.36,0.88,3.73,1.3
			c1.37,0.43,2.71,0.93,4.05,1.52c1.33,0.59,2.56,1.31,3.67,2.18c1.12,0.87,2.02,1.96,2.72,3.27c0.69,1.31,1.04,2.91,1.04,4.79
			c0,2.77-0.71,5.03-2.13,6.79c-1.42,1.76-3.32,3.05-5.7,3.89c-2.38,0.83-4.99,1.25-7.83,1.25c-1.95,0-3.96-0.19-6.02-0.56
			c-2.06-0.37-4.08-0.93-6.07-1.68l0.32-10.75h5.27l1.28,6.28l-0.85-1.44c0.99,0.46,2.06,0.82,3.19,1.06
			c1.14,0.25,2.24,0.37,3.3,0.37c1.13,0,2.16-0.15,3.09-0.45c0.92-0.3,1.67-0.75,2.24-1.33c0.57-0.59,0.85-1.32,0.85-2.21
			c0-0.99-0.34-1.8-1.01-2.42c-0.68-0.62-1.57-1.15-2.69-1.6c-1.12-0.44-2.35-0.86-3.7-1.25c-1.35-0.39-2.69-0.86-4.02-1.41
			c-1.33-0.55-2.55-1.25-3.67-2.1c-1.12-0.85-2.01-1.93-2.69-3.22c-0.67-1.3-1.01-2.92-1.01-4.87c0-2.63,0.62-4.78,1.86-6.47
			c1.24-1.69,2.94-2.95,5.08-3.78c2.15-0.83,4.57-1.25,7.27-1.25c1.88,0,3.88,0.2,5.99,0.59c2.11,0.39,4.2,0.98,6.25,1.76l-0.59,9.9
			h-5.48l-1.28-5.54l0.96,0.9c-0.82-0.28-1.68-0.51-2.58-0.67c-0.9-0.16-1.82-0.24-2.74-0.24c-1.03,0-1.99,0.12-2.87,0.35
			c-0.89,0.23-1.6,0.61-2.13,1.15C130.14,71.1,129.87,71.79,129.87,72.64z"/>
		<path class="st0" d="M166.39,87.92h-3.89l1.86-1.38v9.74l-1.28-1.7l5.91,1.54v4.58h-17.46v-4.58l4.95-1.65l-1.38,1.81v-28.7
			l1.6,1.92l-5.16-1.6v-4.58l12.99-0.27h4.26c3.05,0,5.55,0.53,7.48,1.6c1.93,1.06,3.35,2.49,4.26,4.29
			c0.91,1.79,1.36,3.81,1.36,6.04c0,2.38-0.54,4.55-1.62,6.52c-1.08,1.97-2.76,3.53-5.03,4.68
			C172.96,87.34,170.01,87.92,166.39,87.92z M167.35,69.61h-4.37l1.38-1.38V82.7l-1.86-1.38h3.89c2.02,0,3.54-0.57,4.55-1.7
			s1.52-2.63,1.52-4.47c0-1.7-0.44-3.05-1.3-4.05C170.29,70.1,169.02,69.61,167.35,69.61z"/>
		<path class="st0" d="M226.28,67.64l-4.79,1.92l1.22-2.34v29.07l-1.22-1.76l4.79,1.6v4.58h-15.6v-4.58l5-1.65l-1.49,1.81V72.8
			l1.44,0.05l-8.57,18.1l-5.75,0.27l-8.2-18.42h1.33v23.48l-0.96-1.65l4.53,1.49v4.58h-14.53v-4.58l4.79-1.6l-1.22,1.76V67.21
			l1.22,2.29l-4.79-1.6v-4.58l14.91-0.27l7.4,18.9h-1.07l7.88-18.63l13.68-0.27V67.64z"/>
		<path class="st0" d="M248.33,72.64c0,0.89,0.34,1.63,1.01,2.24c0.67,0.6,1.57,1.13,2.69,1.57c1.12,0.44,2.36,0.88,3.73,1.3
			c1.37,0.43,2.71,0.93,4.05,1.52c1.33,0.59,2.56,1.31,3.67,2.18c1.12,0.87,2.02,1.96,2.72,3.27c0.69,1.31,1.04,2.91,1.04,4.79
			c0,2.77-0.71,5.03-2.13,6.79c-1.42,1.76-3.32,3.05-5.7,3.89c-2.38,0.83-4.99,1.25-7.83,1.25c-1.95,0-3.96-0.19-6.02-0.56
			c-2.06-0.37-4.08-0.93-6.07-1.68l0.32-10.75h5.27l1.28,6.28l-0.85-1.44c0.99,0.46,2.06,0.82,3.19,1.06
			c1.14,0.25,2.24,0.37,3.3,0.37c1.13,0,2.16-0.15,3.09-0.45c0.92-0.3,1.67-0.75,2.24-1.33c0.57-0.59,0.85-1.32,0.85-2.21
			c0-0.99-0.34-1.8-1.01-2.42c-0.68-0.62-1.57-1.15-2.69-1.6c-1.12-0.44-2.35-0.86-3.7-1.25c-1.35-0.39-2.69-0.86-4.02-1.41
			c-1.33-0.55-2.55-1.25-3.67-2.1c-1.12-0.85-2.01-1.93-2.69-3.22c-0.67-1.3-1.01-2.92-1.01-4.87c0-2.63,0.62-4.78,1.86-6.47
			c1.24-1.69,2.94-2.95,5.08-3.78c2.15-0.83,4.57-1.25,7.27-1.25c1.88,0,3.88,0.2,5.99,0.59c2.11,0.39,4.2,0.98,6.25,1.76l-0.59,9.9
			h-5.48l-1.28-5.54l0.96,0.9c-0.82-0.28-1.68-0.51-2.58-0.67c-0.9-0.16-1.82-0.24-2.74-0.24c-1.03,0-1.99,0.12-2.87,0.35
			c-0.89,0.23-1.6,0.61-2.13,1.15C248.59,71.1,248.33,71.79,248.33,72.64z"/>
		<path class="st0" d="M284.58,71.42c4.4,0,7.8,1.25,10.2,3.75c2.4,2.5,3.59,6.08,3.59,10.73c0,3.23-0.6,6-1.78,8.3
			c-1.19,2.31-2.88,4.08-5.08,5.32c-2.2,1.24-4.83,1.86-7.88,1.86c-4.36,0-7.73-1.25-10.09-3.75S270,91.56,270,86.91
			c0-3.26,0.58-6.05,1.73-8.36c1.15-2.31,2.82-4.07,5-5.3S281.53,71.42,284.58,71.42z M284.21,77.75c-1.7,0-2.93,0.68-3.67,2.05
			c-0.75,1.37-1.12,3.59-1.12,6.68c0,3.09,0.36,5.29,1.09,6.6c0.73,1.31,1.91,1.97,3.54,1.97c1.17,0,2.11-0.31,2.82-0.93
			c0.71-0.62,1.23-1.58,1.57-2.88c0.34-1.29,0.51-2.95,0.51-4.98c0-3.05-0.37-5.23-1.12-6.55S285.88,77.75,284.21,77.75z"/>
		<path class="st0" d="M312.43,95.53l-0.59-0.75l3.83,1.33v4.58h-15.55v-4.58l3.83-1.33l-0.58,0.75V64.82l0.53,0.53l-3.78-1.22V59.6
			l12.3-0.53V95.53z"/>
		<path class="st0" d="M328.29,101.39c-2.38,0-4.38-0.78-6.02-2.34c-1.63-1.56-2.45-3.94-2.45-7.13V77.06l0.8,1.22l-4.05-1.44v-4.53
			l12.3-0.43v18.58c0,1.38,0.31,2.41,0.93,3.09s1.45,1.01,2.48,1.01c0.78,0,1.64-0.2,2.58-0.61c0.94-0.41,1.89-1.04,2.85-1.89
			l-0.53,1.49V76.85l0.75,1.44l-3.99-1.44v-4.53l12.3-0.48v24.22l-1.06-1.49l4.26,1.54v4.58l-10.27,0.48l-1.17-5.22l1.22,0.37
			c-1.74,1.7-3.56,2.97-5.46,3.81C331.85,100.97,330.03,101.39,328.29,101.39z"/>
		<path class="st0" d="M362.31,101.39c-2.7,0-4.73-0.81-6.1-2.42c-1.37-1.61-2.05-4.02-2.05-7.21V76.9l1.12,1.12h-4.95v-4.74
			l5.06-1.54l-1.22,1.54v-7.4l9.05-1.65v9.05l-0.9-1.17h8.04l-0.16,5.91h-7.88l0.9-1.12v13.63c0,1.49,0.23,2.57,0.69,3.25
			c0.46,0.68,1.17,1.01,2.13,1.01c0.53,0,1.13-0.08,1.78-0.24c0.66-0.16,1.39-0.38,2.21-0.67l1.65,4.84
			C368.45,100.5,365.32,101.39,362.31,101.39z"/>
		<path class="st0" d="M385.73,95.53l-0.59-0.75l3.83,1.33v4.58h-15.55v-4.58l3.83-1.33l-0.59,0.75V77.59l0.53,0.53l-3.78-1.28
			v-4.53l12.3-0.43V95.53z M381.05,68.54c-1.53,0-2.76-0.43-3.7-1.3c-0.94-0.87-1.41-2.12-1.41-3.75c0-1.7,0.49-2.97,1.46-3.81
			c0.98-0.83,2.21-1.25,3.7-1.25c1.45,0,2.66,0.41,3.62,1.22c0.96,0.82,1.44,2.09,1.44,3.83c0,1.67-0.49,2.93-1.46,3.78
			C383.72,68.12,382.5,68.54,381.05,68.54z"/>
		<path class="st0" d="M405.32,71.42c4.4,0,7.8,1.25,10.2,3.75c2.4,2.5,3.59,6.08,3.59,10.73c0,3.23-0.6,6-1.78,8.3
			c-1.19,2.31-2.88,4.08-5.08,5.32c-2.2,1.24-4.83,1.86-7.88,1.86c-4.36,0-7.73-1.25-10.09-3.75s-3.54-6.08-3.54-10.73
			c0-3.26,0.58-6.05,1.73-8.36c1.15-2.31,2.82-4.07,5-5.3S402.27,71.42,405.32,71.42z M404.95,77.75c-1.7,0-2.93,0.68-3.67,2.05
			c-0.75,1.37-1.12,3.59-1.12,6.68c0,3.09,0.36,5.29,1.09,6.6c0.73,1.31,1.91,1.97,3.54,1.97c1.17,0,2.11-0.31,2.82-0.93
			c0.71-0.62,1.23-1.58,1.57-2.88c0.34-1.29,0.51-2.95,0.51-4.98c0-3.05-0.37-5.23-1.12-6.55S406.62,77.75,404.95,77.75z"/>
		<path class="st0" d="M421.61,100.7v-4.58l4.31-1.44l-1.06,1.28V76.9l1.06,1.44l-4.31-1.49v-4.53l10.27-0.48l1.12,5l-1.12-0.37
			c1.7-1.7,3.51-2.97,5.43-3.81c1.92-0.83,3.74-1.25,5.48-1.25c2.38,0,4.38,0.76,6.02,2.29c1.63,1.53,2.43,3.85,2.39,6.97v15.28
			l-0.75-1.22l3.99,1.38v4.58H439.4v-4.58l3.78-1.33l-0.96,1.33V82.54c0-1.49-0.32-2.58-0.96-3.27c-0.64-0.69-1.47-1.04-2.5-1.04
			c-0.82,0-1.69,0.21-2.63,0.64c-0.94,0.43-1.87,1.05-2.8,1.86l0.59-1.22v16.61l-0.8-1.28l3.57,1.28v4.58H421.61z"/>
		<path class="st0" d="M465.75,79.51c0,0.67,0.35,1.23,1.04,1.68c0.69,0.44,1.6,0.82,2.71,1.14c1.12,0.32,2.32,0.67,3.59,1.04
			c1.28,0.37,2.48,0.88,3.59,1.52c1.12,0.64,2.03,1.47,2.74,2.5c0.71,1.03,1.06,2.36,1.06,3.99c0,2.27-0.61,4.15-1.84,5.64
			c-1.22,1.49-2.87,2.6-4.95,3.33c-2.08,0.73-4.43,1.09-7.05,1.09c-1.53,0-3.13-0.13-4.82-0.4c-1.69-0.27-3.42-0.63-5.19-1.09
			l0.32-8.41h5.59l0.69,4.47l-0.75-1.22c0.67,0.25,1.42,0.42,2.24,0.53c0.82,0.11,1.51,0.16,2.08,0.16c0.78,0,1.52-0.08,2.24-0.24
			c0.71-0.16,1.28-0.42,1.7-0.8c0.43-0.37,0.64-0.84,0.64-1.41c0-0.71-0.36-1.28-1.07-1.7c-0.71-0.42-1.62-0.79-2.74-1.09
			c-1.12-0.3-2.29-0.65-3.51-1.04c-1.22-0.39-2.4-0.91-3.51-1.57c-1.12-0.66-2.02-1.54-2.71-2.66c-0.69-1.12-1.04-2.55-1.04-4.29
			c0-2.2,0.53-3.98,1.6-5.35c1.06-1.37,2.53-2.37,4.39-3.01c1.86-0.64,3.93-0.96,6.2-0.96c1.6,0,3.25,0.13,4.98,0.4
			c1.72,0.27,3.49,0.67,5.3,1.2L479,80.57h-5.75l-0.9-4.1l1.22,1.33c-1.6-0.43-2.96-0.64-4.1-0.64c-1.14,0-2.04,0.2-2.71,0.61
			C466.08,78.19,465.75,78.76,465.75,79.51z"/>
	</g>
</g>
<g>
	<g>
		<path class="st0" d="M185.92,118.33c0,0.63,0.18,1.15,0.54,1.55c0.36,0.4,0.84,0.74,1.43,1.01c0.59,0.27,1.24,0.51,1.95,0.73
			c0.71,0.21,1.42,0.46,2.13,0.73c0.71,0.27,1.36,0.6,1.95,1s1.07,0.91,1.43,1.54c0.36,0.63,0.54,1.42,0.54,2.37
			c0,1.28-0.33,2.33-0.98,3.15c-0.66,0.83-1.53,1.44-2.61,1.83c-1.09,0.4-2.29,0.59-3.6,0.59c-0.92,0-1.85-0.09-2.8-0.28
			c-0.95-0.19-1.9-0.47-2.83-0.85l0.16-4.63h1.62l0.51,3.37l-0.3-0.51c0.59,0.27,1.22,0.48,1.87,0.62c0.66,0.14,1.3,0.22,1.93,0.22
			c0.77,0,1.49-0.12,2.14-0.35c0.66-0.23,1.18-0.59,1.58-1.05c0.39-0.47,0.59-1.05,0.59-1.75c0-0.66-0.18-1.2-0.54-1.62
			c-0.36-0.41-0.84-0.75-1.43-1.03c-0.59-0.27-1.24-0.51-1.94-0.73c-0.7-0.22-1.41-0.45-2.12-0.7c-0.71-0.25-1.36-0.57-1.95-0.96
			c-0.59-0.39-1.07-0.89-1.43-1.51c-0.36-0.62-0.54-1.4-0.54-2.33c0-1.2,0.29-2.2,0.88-2.98c0.58-0.78,1.37-1.36,2.37-1.75
			c1-0.39,2.12-0.58,3.36-0.58c0.88,0,1.79,0.09,2.74,0.28c0.94,0.19,1.87,0.47,2.79,0.85l-0.24,4.39h-1.64l-0.46-3.13l0.35,0.35
			c-0.5-0.22-1.05-0.38-1.64-0.5c-0.59-0.12-1.19-0.17-1.78-0.17c-0.7,0-1.36,0.09-1.97,0.28c-0.61,0.19-1.1,0.49-1.48,0.9
			C186.11,117.1,185.92,117.65,185.92,118.33z"/>
		<path class="st0" d="M204.63,132.83c-1.24,0-2.33-0.27-3.28-0.82c-0.94-0.55-1.68-1.36-2.21-2.43c-0.53-1.07-0.8-2.38-0.8-3.92
			c0-1.58,0.27-2.94,0.82-4.08c0.55-1.14,1.33-2.02,2.34-2.64c1.01-0.62,2.21-0.93,3.57-0.93c1.31,0,2.39,0.27,3.22,0.81
			c0.84,0.54,1.46,1.28,1.86,2.22c0.4,0.94,0.61,2.02,0.61,3.22c0,0.23-0.01,0.47-0.03,0.7c-0.02,0.23-0.05,0.5-0.08,0.81h-10.21
			v-1.86h7.79l-0.24,0.16c0.02-0.74-0.07-1.41-0.27-2.02c-0.2-0.61-0.53-1.1-1-1.47c-0.47-0.37-1.09-0.55-1.86-0.55
			c-0.84,0-1.55,0.23-2.1,0.69c-0.56,0.46-0.97,1.08-1.24,1.87s-0.4,1.7-0.4,2.72c0,1.1,0.15,2.05,0.46,2.87
			c0.31,0.82,0.77,1.46,1.39,1.91c0.62,0.46,1.39,0.69,2.3,0.69c0.65,0,1.35-0.13,2.11-0.38c0.76-0.25,1.55-0.63,2.36-1.13
			l0.94,1.48c-1.01,0.7-2.03,1.22-3.06,1.56C206.6,132.66,205.6,132.83,204.63,132.83z"/>
		<path class="st0" d="M224.3,131.11l-0.4-0.57l2.43,0.57v1.43l-4.1,0.19l-0.38-2.59l0.22,0.08c-0.77,0.88-1.61,1.54-2.51,1.97
			c-0.9,0.43-1.77,0.65-2.61,0.65c-1.04,0-1.94-0.34-2.68-1.02c-0.75-0.68-1.12-1.71-1.12-3.07c0-1.04,0.23-1.86,0.68-2.44
			c0.45-0.58,1.08-1,1.89-1.25c0.81-0.25,1.76-0.38,2.86-0.38h3.29l-0.24,0.3v-2.32c0-0.93-0.24-1.6-0.73-2.01
			c-0.49-0.4-1.16-0.61-2.02-0.61c-0.45,0-0.92,0.05-1.42,0.13c-0.49,0.09-1.03,0.23-1.6,0.43l0.38-0.38l-0.3,2.4h-1.78l-0.21-3.58
			c1.1-0.34,2.11-0.6,3.03-0.77c0.92-0.17,1.78-0.26,2.57-0.26c1.51,0,2.68,0.33,3.52,1c0.84,0.67,1.25,1.72,1.25,3.15V131.11z
			 M215.86,128.55c0,0.77,0.19,1.34,0.57,1.71c0.38,0.37,0.85,0.55,1.43,0.55c0.57,0,1.21-0.18,1.9-0.55
			c0.69-0.37,1.36-0.86,2.01-1.47l-0.16,0.67v-3.34l0.24,0.27h-2.86c-1.19,0-2,0.18-2.45,0.54S215.86,127.83,215.86,128.55z"/>
		<path class="st0" d="M227.72,132.56v-1.43l2.32-0.54l-0.32,0.46v-11.18l0.35,0.48l-2.34-0.56v-1.43l4.1-0.19l0.35,2.62l-0.35-0.11
			c0.81-0.84,1.6-1.5,2.39-1.97s1.62-0.7,2.52-0.7c0.57,0,1.19,0.09,1.83,0.27l-0.19,4.28h-1.64l-0.35-2.86l0.3,0.56
			c-0.13-0.04-0.26-0.06-0.39-0.08c-0.14-0.02-0.27-0.03-0.39-0.03c-0.67,0-1.32,0.2-1.95,0.61s-1.23,0.92-1.77,1.55l0.24-0.78v9.51
			l-0.35-0.46l2.86,0.54v1.43H227.72z"/>
		<path class="st0" d="M245.7,132.83c-1.17,0-2.23-0.29-3.18-0.86c-0.95-0.57-1.7-1.4-2.25-2.48c-0.55-1.08-0.82-2.38-0.82-3.91
			c0-1.35,0.19-2.5,0.58-3.45c0.39-0.95,0.91-1.73,1.56-2.34c0.66-0.61,1.4-1.06,2.22-1.35c0.83-0.29,1.69-0.43,2.59-0.43
			c0.77,0,1.58,0.1,2.41,0.31c0.84,0.21,1.55,0.46,2.14,0.77l-0.11,3.58h-1.78l-0.38-2.43l0.24,0.22c-0.38-0.18-0.8-0.3-1.27-0.38
			c-0.47-0.07-0.89-0.11-1.27-0.11c-0.88,0-1.63,0.22-2.25,0.66c-0.62,0.44-1.09,1.07-1.42,1.89s-0.49,1.78-0.49,2.9
			c0,1.15,0.18,2.13,0.53,2.94c0.35,0.81,0.83,1.41,1.44,1.82c0.61,0.4,1.31,0.61,2.1,0.61c0.61,0,1.27-0.13,1.97-0.38
			c0.7-0.25,1.43-0.64,2.18-1.16l0.94,1.43c-0.97,0.74-1.93,1.28-2.88,1.63C247.57,132.66,246.63,132.83,245.7,132.83z"/>
		<path class="st0" d="M252.41,132.56v-1.43l2.4-0.57l-0.38,0.46V113.4l0.38,0.49l-2.4-0.57v-1.43l4.72-0.19v9.08l-0.59-0.14
			c0.86-0.9,1.78-1.56,2.76-1.99c0.98-0.43,1.91-0.65,2.79-0.65c0.79,0,1.5,0.17,2.14,0.5s1.14,0.83,1.5,1.48
			c0.36,0.66,0.53,1.5,0.51,2.52v8.52l-0.3-0.43l2.32,0.54v1.43h-6.6v-1.43l2.24-0.54l-0.35,0.46v-7.95
			c0.02-1.04-0.21-1.8-0.69-2.29c-0.48-0.49-1.1-0.73-1.87-0.73c-0.59,0-1.25,0.17-1.97,0.5c-0.72,0.33-1.42,0.85-2.1,1.55
			l0.21-0.51v9.43l-0.3-0.43l2.18,0.51v1.43H252.41z"/>
		<path class="st0" d="M276.07,132.83c-1.24,0-2.33-0.27-3.28-0.82c-0.94-0.55-1.68-1.36-2.21-2.43c-0.53-1.07-0.8-2.38-0.8-3.92
			c0-1.58,0.27-2.94,0.82-4.08c0.55-1.14,1.33-2.02,2.34-2.64c1.01-0.62,2.21-0.93,3.57-0.93c1.31,0,2.39,0.27,3.22,0.81
			c0.84,0.54,1.46,1.28,1.86,2.22c0.4,0.94,0.61,2.02,0.61,3.22c0,0.23-0.01,0.47-0.03,0.7c-0.02,0.23-0.05,0.5-0.08,0.81h-10.21
			v-1.86h7.79l-0.24,0.16c0.02-0.74-0.07-1.41-0.27-2.02c-0.2-0.61-0.53-1.1-1-1.47c-0.47-0.37-1.09-0.55-1.86-0.55
			c-0.84,0-1.55,0.23-2.1,0.69c-0.56,0.46-0.97,1.08-1.24,1.87s-0.4,1.7-0.4,2.72c0,1.1,0.15,2.05,0.46,2.87
			c0.31,0.82,0.77,1.46,1.39,1.91c0.62,0.46,1.39,0.69,2.3,0.69c0.65,0,1.35-0.13,2.11-0.38c0.76-0.25,1.55-0.63,2.36-1.13
			l0.94,1.48c-1.01,0.7-2.03,1.22-3.06,1.56C278.04,132.66,277.04,132.83,276.07,132.83z"/>
		<path class="st0" d="M287.53,121.78c0,0.52,0.18,0.93,0.54,1.23c0.36,0.3,0.83,0.54,1.4,0.74c0.57,0.2,1.19,0.4,1.85,0.59
			c0.66,0.2,1.27,0.45,1.85,0.75c0.57,0.31,1.05,0.71,1.41,1.23c0.37,0.51,0.55,1.18,0.55,2.01c0,0.97-0.26,1.79-0.8,2.45
			c-0.53,0.66-1.25,1.17-2.17,1.52c-0.92,0.35-1.94,0.52-3.07,0.52c-0.66,0-1.37-0.05-2.1-0.16c-0.74-0.11-1.49-0.27-2.26-0.49
			l0.19-3.8h1.7l0.3,2.56l-0.27-0.32c0.4,0.11,0.82,0.19,1.28,0.26c0.46,0.06,0.88,0.09,1.25,0.09c0.56,0,1.08-0.08,1.58-0.24
			c0.49-0.16,0.9-0.41,1.21-0.74c0.31-0.33,0.47-0.74,0.47-1.23c0-0.54-0.18-0.97-0.55-1.28s-0.84-0.57-1.41-0.77
			c-0.58-0.2-1.18-0.39-1.82-0.59c-0.64-0.2-1.24-0.45-1.82-0.75c-0.58-0.3-1.04-0.71-1.4-1.21s-0.54-1.18-0.54-2.02
			c0-0.95,0.24-1.73,0.73-2.34c0.49-0.61,1.13-1.06,1.94-1.35c0.81-0.29,1.67-0.43,2.59-0.43c0.63,0,1.32,0.06,2.09,0.19
			c0.76,0.13,1.55,0.31,2.36,0.56l-0.14,3.26h-1.72l-0.4-2.18l0.38,0.43c-0.9-0.27-1.72-0.4-2.48-0.4c-0.79,0-1.44,0.17-1.94,0.51
			C287.78,120.72,287.53,121.19,287.53,121.78z"/>
		<path class="st0" d="M307.12,130.92l-0.24-0.32l2.26,0.54v1.43h-6.71v-1.43l2.26-0.54l-0.27,0.32v-10.86l0.24,0.24l-2.24-0.51
			v-1.43l4.69-0.16V130.92z M305.64,115.56c-0.49,0-0.89-0.15-1.2-0.46c-0.31-0.31-0.47-0.74-0.47-1.29c0-0.57,0.16-1.01,0.48-1.31
			c0.32-0.3,0.73-0.44,1.21-0.44c0.5,0,0.91,0.15,1.23,0.44c0.31,0.3,0.47,0.73,0.47,1.31c0,0.58-0.17,1.01-0.5,1.31
			C306.53,115.41,306.12,115.56,305.64,115.56z"/>
		<path class="st0" d="M310.65,132.56v-1.43l2.37-0.57l-0.38,0.46v-11.16l0.38,0.48l-2.37-0.56v-1.43l4.1-0.19l0.35,2.62l-0.35-0.14
			c0.88-0.9,1.81-1.56,2.79-1.99c0.98-0.43,1.91-0.65,2.79-0.65c1.2,0,2.2,0.37,2.99,1.11c0.79,0.74,1.18,1.88,1.16,3.42v8.49
			l-0.3-0.43l2.29,0.54v1.43h-6.58v-1.43l2.24-0.54l-0.35,0.46v-7.95c0-1.04-0.23-1.8-0.7-2.29c-0.47-0.49-1.09-0.73-1.86-0.73
			c-0.61,0-1.27,0.17-1.98,0.5c-0.71,0.33-1.4,0.84-2.09,1.52l0.19-0.48v9.43l-0.3-0.43l2.18,0.51v1.43H310.65z"/>
		<path class="st0" d="M332.75,132.83c-1.04,0-1.85-0.32-2.41-0.96s-0.85-1.59-0.85-2.87v-9.27l0.38,0.38h-2.69v-1.46l2.75-0.49
			l-0.43,0.51v-3.58l2.69-0.46v4.04l-0.32-0.4h4.18l-0.08,1.83h-4.1l0.32-0.38v8.89c0,0.75,0.14,1.3,0.42,1.64
			c0.28,0.34,0.69,0.51,1.23,0.51c0.3,0,0.64-0.05,1.01-0.15c0.37-0.1,0.77-0.25,1.2-0.44l0.54,1.54
			C335.21,132.46,333.93,132.83,332.75,132.83z"/>
		<path class="st0" d="M344.5,118.01c2.01,0,3.59,0.63,4.74,1.87c1.15,1.25,1.72,3.02,1.72,5.3c0,1.54-0.28,2.89-0.84,4.04
			c-0.56,1.15-1.35,2.04-2.39,2.67c-1.03,0.63-2.28,0.94-3.73,0.94c-1.99,0-3.55-0.61-4.66-1.85s-1.67-2.99-1.67-5.27
			c0-1.6,0.27-2.97,0.81-4.12c0.54-1.15,1.32-2.04,2.33-2.65C341.83,118.32,343.06,118.01,344.5,118.01z M344.36,119.98
			c-1.28,0-2.24,0.48-2.9,1.44c-0.66,0.96-0.98,2.35-0.98,4.16c0,1.78,0.31,3.1,0.94,3.98s1.54,1.31,2.75,1.31
			c0.88,0,1.61-0.22,2.2-0.65c0.58-0.43,1.02-1.06,1.32-1.9c0.3-0.84,0.44-1.84,0.44-3c0-1.78-0.32-3.11-0.97-4
			C346.52,120.42,345.58,119.98,344.36,119.98z"/>
		<path class="st0" d="M361.88,118.33c0,0.63,0.18,1.15,0.54,1.55c0.36,0.4,0.84,0.74,1.43,1.01c0.59,0.27,1.24,0.51,1.95,0.73
			c0.71,0.21,1.42,0.46,2.13,0.73c0.71,0.27,1.36,0.6,1.95,1c0.59,0.4,1.07,0.91,1.43,1.54c0.36,0.63,0.54,1.42,0.54,2.37
			c0,1.28-0.33,2.33-0.98,3.15c-0.66,0.83-1.53,1.44-2.61,1.83c-1.09,0.4-2.29,0.59-3.6,0.59c-0.92,0-1.85-0.09-2.8-0.28
			c-0.95-0.19-1.9-0.47-2.83-0.85l0.16-4.63h1.62l0.51,3.37l-0.3-0.51c0.59,0.27,1.22,0.48,1.87,0.62c0.66,0.14,1.3,0.22,1.93,0.22
			c0.77,0,1.49-0.12,2.14-0.35c0.66-0.23,1.18-0.59,1.58-1.05c0.39-0.47,0.59-1.05,0.59-1.75c0-0.66-0.18-1.2-0.54-1.62
			c-0.36-0.41-0.84-0.75-1.43-1.03c-0.59-0.27-1.24-0.51-1.94-0.73c-0.7-0.22-1.41-0.45-2.12-0.7c-0.71-0.25-1.36-0.57-1.95-0.96
			c-0.59-0.39-1.07-0.89-1.43-1.51c-0.36-0.62-0.54-1.4-0.54-2.33c0-1.2,0.29-2.2,0.88-2.98c0.58-0.78,1.37-1.36,2.37-1.75
			c1-0.39,2.12-0.58,3.36-0.58c0.88,0,1.79,0.09,2.74,0.28c0.94,0.19,1.87,0.47,2.79,0.85l-0.24,4.39h-1.64l-0.46-3.13l0.35,0.35
			c-0.5-0.22-1.05-0.38-1.64-0.5c-0.59-0.12-1.19-0.17-1.78-0.17c-0.7,0-1.36,0.09-1.97,0.28c-0.61,0.19-1.1,0.49-1.48,0.9
			C362.07,117.1,361.88,117.65,361.88,118.33z"/>
		<path class="st0" d="M385.25,131.11l-0.4-0.57l2.43,0.57v1.43l-4.1,0.19l-0.38-2.59l0.22,0.08c-0.77,0.88-1.61,1.54-2.51,1.97
			c-0.9,0.43-1.77,0.65-2.61,0.65c-1.04,0-1.94-0.34-2.68-1.02c-0.75-0.68-1.12-1.71-1.12-3.07c0-1.04,0.23-1.86,0.68-2.44
			c0.45-0.58,1.08-1,1.89-1.25c0.81-0.25,1.76-0.38,2.86-0.38h3.29l-0.24,0.3v-2.32c0-0.93-0.24-1.6-0.73-2.01
			c-0.49-0.4-1.16-0.61-2.02-0.61c-0.45,0-0.92,0.05-1.42,0.13c-0.49,0.09-1.03,0.23-1.6,0.43l0.38-0.38l-0.3,2.4h-1.78l-0.21-3.58
			c1.1-0.34,2.11-0.6,3.03-0.77c0.92-0.17,1.78-0.26,2.57-0.26c1.51,0,2.68,0.33,3.52,1c0.84,0.67,1.25,1.72,1.25,3.15V131.11z
			 M376.81,128.55c0,0.77,0.19,1.34,0.57,1.71c0.38,0.37,0.85,0.55,1.43,0.55c0.57,0,1.21-0.18,1.9-0.55
			c0.69-0.37,1.36-0.86,2.01-1.47l-0.16,0.67v-3.34l0.24,0.27h-2.86c-1.19,0-2,0.18-2.45,0.54S376.81,127.83,376.81,128.55z"/>
		<path class="st0" d="M393.01,130.92l-0.24-0.32l2.24,0.54v1.43h-6.71v-1.43l2.26-0.54l-0.24,0.32v-17.33l0.21,0.24l-2.24-0.51
			v-1.43l4.72-0.19V130.92z"/>
		<path class="st0" d="M403.03,132.83c-1.24,0-2.33-0.27-3.28-0.82c-0.94-0.55-1.68-1.36-2.21-2.43c-0.53-1.07-0.8-2.38-0.8-3.92
			c0-1.58,0.27-2.94,0.82-4.08c0.55-1.14,1.33-2.02,2.34-2.64s2.21-0.93,3.57-0.93c1.31,0,2.39,0.27,3.22,0.81
			c0.84,0.54,1.46,1.28,1.86,2.22c0.4,0.94,0.61,2.02,0.61,3.22c0,0.23-0.01,0.47-0.03,0.7c-0.02,0.23-0.05,0.5-0.08,0.81h-10.21
			v-1.86h7.79l-0.24,0.16c0.02-0.74-0.07-1.41-0.27-2.02c-0.2-0.61-0.53-1.1-1-1.47c-0.47-0.37-1.09-0.55-1.86-0.55
			c-0.84,0-1.55,0.23-2.1,0.69c-0.56,0.46-0.97,1.08-1.24,1.87s-0.4,1.7-0.4,2.72c0,1.1,0.15,2.05,0.46,2.87
			c0.31,0.82,0.77,1.46,1.39,1.91c0.62,0.46,1.39,0.69,2.3,0.69c0.65,0,1.35-0.13,2.11-0.38c0.76-0.25,1.55-0.63,2.36-1.13
			l0.94,1.48c-1.01,0.7-2.03,1.22-3.06,1.56C405,132.66,404,132.83,403.03,132.83z"/>
		<path class="st0" d="M414.49,121.78c0,0.52,0.18,0.93,0.54,1.23c0.36,0.3,0.83,0.54,1.4,0.74c0.57,0.2,1.19,0.4,1.85,0.59
			c0.66,0.2,1.27,0.45,1.85,0.75c0.57,0.31,1.05,0.71,1.41,1.23c0.37,0.51,0.55,1.18,0.55,2.01c0,0.97-0.26,1.79-0.8,2.45
			c-0.53,0.66-1.25,1.17-2.17,1.52c-0.92,0.35-1.94,0.52-3.07,0.52c-0.66,0-1.37-0.05-2.1-0.16c-0.74-0.11-1.49-0.27-2.26-0.49
			l0.19-3.8h1.7l0.3,2.56l-0.27-0.32c0.4,0.11,0.82,0.19,1.28,0.26c0.46,0.06,0.88,0.09,1.25,0.09c0.56,0,1.08-0.08,1.58-0.24
			c0.49-0.16,0.9-0.41,1.21-0.74c0.31-0.33,0.47-0.74,0.47-1.23c0-0.54-0.18-0.97-0.55-1.28s-0.84-0.57-1.41-0.77
			c-0.58-0.2-1.18-0.39-1.82-0.59c-0.64-0.2-1.24-0.45-1.82-0.75c-0.58-0.3-1.04-0.71-1.4-1.21s-0.54-1.18-0.54-2.02
			c0-0.95,0.24-1.73,0.73-2.34c0.49-0.61,1.13-1.06,1.94-1.35c0.81-0.29,1.67-0.43,2.59-0.43c0.63,0,1.32,0.06,2.09,0.19
			c0.76,0.13,1.55,0.31,2.36,0.56l-0.14,3.26h-1.72l-0.4-2.18l0.38,0.43c-0.9-0.27-1.72-0.4-2.48-0.4c-0.79,0-1.44,0.17-1.94,0.51
			C414.74,120.72,414.49,121.19,414.49,121.78z"/>
	</g>
</g>
</svg>
