<?xml version="1.0" encoding="utf-8"?>
<!-- Generator: Adobe Illustrator 24.0.2, SVG Export Plug-In . SVG Version: 6.00 Build 0)  -->
<svg version="1.1" id="Layer_1" xmlns="http://www.w3.org/2000/svg" xmlns:xlink="http://www.w3.org/1999/xlink" x="0px" y="0px"
	 viewBox="0 0 500 500" style="enable-background:new 0 0 500 500;" xml:space="preserve">
<style type="text/css">
	.st0{fill:#345541;}
	.st1{fill:#B29D83;}
	.st2{fill:#476752;}
</style>
<g>
	<path class="st0" d="M395.15,451.21H104.43c-0.81,0-1.46-0.65-1.46-1.46v-17.34c0-0.81,0.65-1.46,1.46-1.46h290.72
		c0.81,0,1.46,0.65,1.46,1.46v17.34C396.61,450.55,395.96,451.21,395.15,451.21z"/>
	<path class="st0" d="M259.95,437.7h-19.89V140.27c0-4.69,1.6-9.24,4.53-12.9l5.42-6.76l5.42,6.76c2.93,3.66,4.53,8.21,4.53,12.9
		V437.7z"/>
	<path class="st1" d="M259.95,138.29l1.34-2.29c4.83-8.24,10.74-15.79,17.57-22.46l2.15-2.1l-1.02,92.36l-20.04,21.16V138.29z"/>
	<path class="st0" d="M259.95,224.97l24.5-25.77c3.75-3.94,8.22-7.12,13.17-9.36h0c9.45-4.27,19.47-7.16,29.75-8.57l7.3-1
		l-74.73,74.06V224.97z"/>
	<polygon class="st1" points="259.95,273 363.63,171.08 374.76,190.74 259.95,302.8 	"/>
	<path class="st1" d="M259.95,320.98l107.54-105.28c3.22-3.15,7.08-5.59,11.31-7.15l27.85-10.25l-21.49,29.98
		c-1.1,1.53-2.33,2.97-3.68,4.28L259.95,350.78V320.98z"/>
	<g>
		<path class="st2" d="M297.52,383.44c15.68-4.42,35.33-11.21,54.29-21.24c41.13-21.75,64.47-65.56,64.47-65.56l-2.61-0.11
			c-7.33,0.93-24.7,5.31-51.83,25.15C336.82,339.97,311.36,367.53,297.52,383.44z"/>
		<path class="st0" d="M355.86,309.69L355.86,309.69c-5.39,3.08-10.36,6.82-14.82,11.13l-71.37,69.12c4.98-0.89,15.1-2.91,27.85-6.5
			c13.84-15.91,39.3-43.47,64.32-61.77c27.13-19.83,44.5-24.22,51.83-25.15l-2.93-0.13C391.56,295.56,372.53,300.17,355.86,309.69z"
			/>
	</g>
	<circle class="st2" cx="374.76" cy="172.67" r="21.01"/>
	<circle class="st2" cx="317.35" cy="138.59" r="27.24"/>
	<circle class="st2" cx="250" cy="78.39" r="29.6"/>
	<g>
		<path class="st1" d="M382.63,250.15l-122.68,119.4v22.29c2.89-0.44,6.2-1.05,9.54-1.73l127.12-123.11L382.63,250.15z"/>
	</g>
	<circle class="st2" cx="389.4" cy="258.49" r="17.24"/>
	<path class="st1" d="M240.05,138.29l-1.34-2.29c-4.83-8.24-10.74-15.79-17.57-22.46l-2.15-2.1l1.02,92.36l20.04,21.16V138.29z"/>
	<path class="st0" d="M240.05,224.97l-24.5-25.77c-3.75-3.94-8.22-7.12-13.17-9.36h0c-9.45-4.27-19.47-7.16-29.75-8.57l-7.3-1
		l74.73,74.06V224.97z"/>
	<polygon class="st1" points="240.05,273 136.37,171.08 125.24,190.74 240.05,302.8 	"/>
	<path class="st1" d="M240.05,320.98L132.51,215.69c-3.22-3.15-7.08-5.59-11.31-7.15l-27.85-10.25l21.49,29.98
		c1.1,1.53,2.33,2.97,3.68,4.28l121.52,118.23V320.98z"/>
	<g>
		<path class="st2" d="M202.48,383.44c-15.68-4.42-35.33-11.21-54.29-21.24c-41.13-21.75-64.47-65.56-64.47-65.56l2.61-0.11
			c7.33,0.93,24.7,5.31,51.83,25.15C163.18,339.97,188.64,367.53,202.48,383.44z"/>
		<path class="st0" d="M144.14,309.69L144.14,309.69c5.39,3.08,10.36,6.82,14.82,11.13l71.37,69.12c-4.98-0.89-15.1-2.91-27.85-6.5
			c-13.84-15.91-39.3-43.47-64.32-61.77c-27.13-19.83-44.5-24.22-51.83-25.15l2.93-0.13C108.44,295.56,127.47,300.17,144.14,309.69z
			"/>
	</g>
	<circle class="st2" cx="125.24" cy="172.67" r="21.01"/>
	<circle class="st2" cx="182.65" cy="138.59" r="27.24"/>
	<g>
		<path class="st1" d="M117.37,250.15l122.68,119.4v22.29c-2.89-0.44-6.2-1.05-9.54-1.73L103.39,267.01L117.37,250.15z"/>
	</g>
	<circle class="st2" cx="110.6" cy="258.49" r="17.24"/>
</g>
</svg>
