<?xml version="1.0" encoding="utf-8"?>
<!-- Generator: Adobe Illustrator 24.0.2, SVG Export Plug-In . SVG Version: 6.00 Build 0)  -->
<svg version="1.1" id="Layer_1" xmlns="http://www.w3.org/2000/svg" xmlns:xlink="http://www.w3.org/1999/xlink" x="0px" y="0px"
	 viewBox="0 0 500 165.95" style="enable-background:new 0 0 500 165.95;" xml:space="preserve">
<style type="text/css">
	.st0{fill:#345441;}
	.st1{fill:#B09C82;}
	.st2{fill:#466751;}
</style>
<g>
	<path class="st0" d="M112.26,127.85H49.94c-0.88,0-1.59-0.71-1.59-1.59v-1.34c0-0.88,0.71-1.59,1.59-1.59h62.32
		c0.88,0,1.59,0.71,1.59,1.59v1.34C113.85,127.14,113.14,127.85,112.26,127.85z"/>
	<path class="st0" d="M83.36,124.84h-4.44V58.5c0-1.05,0.36-2.06,1.01-2.88l1.21-1.51l1.21,1.51c0.65,0.82,1.01,1.83,1.01,2.88
		V124.84z"/>
	<path class="st1" d="M83.36,58.06l0.3-0.51c1.08-1.84,2.39-3.52,3.92-5.01l0.48-0.47l-0.23,20.6l-4.47,4.72V58.06z"/>
	<path class="st0" d="M83.36,77.39l5.47-5.75c0.84-0.88,1.83-1.59,2.94-2.09l0,0c2.11-0.95,4.34-1.6,6.64-1.91l1.63-0.22
		L83.36,83.94V77.39z"/>
	<polygon class="st1" points="83.36,88.1 106.49,65.37 108.97,69.76 83.36,94.75 	"/>
	<path class="st1" d="M83.36,98.81l23.99-23.48c0.72-0.7,1.58-1.25,2.52-1.59l6.21-2.29l-4.79,6.69c-0.25,0.34-0.52,0.66-0.82,0.96
		l-27.11,26.37V98.81z"/>
	<g>
		<path class="st2" d="M91.74,112.74c3.5-0.98,7.88-2.5,12.11-4.74c9.17-4.85,14.38-14.62,14.38-14.62l-0.58-0.03
			c-1.63,0.21-5.51,1.18-11.56,5.61C100.51,103.04,94.83,109.19,91.74,112.74z"/>
		<path class="st0" d="M104.76,96.29L104.76,96.29c-1.2,0.69-2.31,1.52-3.31,2.48l-15.92,15.42c1.11-0.2,3.37-0.65,6.21-1.45
			c3.09-3.55,8.77-9.7,14.35-13.78c6.05-4.42,9.93-5.4,11.56-5.61L117,93.32C112.72,93.14,108.48,94.16,104.76,96.29z"/>
	</g>
	<circle class="st2" cx="108.97" cy="65.73" r="4.69"/>
	<circle class="st2" cx="96.17" cy="58.13" r="6.08"/>
	<circle class="st2" cx="81.15" cy="44.7" r="6.6"/>
	<g>
		<path class="st1" d="M110.73,83.01l-27.36,26.63v4.97c0.64-0.1,1.38-0.23,2.13-0.39l28.35-27.46L110.73,83.01z"/>
	</g>
	<circle class="st2" cx="112.24" cy="84.87" r="3.85"/>
	<path class="st1" d="M78.93,58.06l-0.3-0.51c-1.08-1.84-2.39-3.52-3.92-5.01l-0.48-0.47l0.23,20.6l4.47,4.72V58.06z"/>
	<path class="st0" d="M78.93,77.39l-5.47-5.75c-0.84-0.88-1.83-1.59-2.94-2.09l0,0c-2.11-0.95-4.34-1.6-6.64-1.91l-1.63-0.22
		l16.67,16.52V77.39z"/>
	<polygon class="st1" points="78.93,88.1 55.8,65.37 53.32,69.76 78.93,94.75 	"/>
	<path class="st1" d="M78.93,98.81L54.94,75.32c-0.72-0.7-1.58-1.25-2.52-1.59l-6.21-2.29L51,78.13c0.25,0.34,0.52,0.66,0.82,0.96
		l27.11,26.37V98.81z"/>
	<g>
		<path class="st2" d="M70.55,112.74c-3.5-0.98-7.88-2.5-12.11-4.74c-9.17-4.85-14.38-14.62-14.38-14.62l0.58-0.03
			c1.63,0.21,5.51,1.18,11.56,5.61C61.78,103.04,67.46,109.19,70.55,112.74z"/>
		<path class="st0" d="M57.53,96.29L57.53,96.29c1.2,0.69,2.31,1.52,3.31,2.48l15.92,15.42c-1.11-0.2-3.37-0.65-6.21-1.45
			c-3.09-3.55-8.77-9.7-14.35-13.78c-6.05-4.42-9.93-5.4-11.56-5.61l0.65-0.03C49.57,93.14,53.82,94.16,57.53,96.29z"/>
	</g>
	<circle class="st2" cx="53.32" cy="65.73" r="4.69"/>
	<circle class="st2" cx="66.12" cy="58.13" r="6.08"/>
	<g>
		<path class="st1" d="M51.56,83.01l27.36,26.63v4.97c-0.64-0.1-1.38-0.23-2.13-0.39L48.44,86.77L51.56,83.01z"/>
	</g>
	<circle class="st2" cx="50.05" cy="84.87" r="3.85"/>
</g>
<g>
	<g>
		<path class="st0" d="M142.67,73.74c0,0.79,0.3,1.46,0.9,2c0.6,0.54,1.4,1.01,2.4,1.4c1,0.4,2.11,0.78,3.33,1.17
			c1.22,0.38,2.43,0.83,3.62,1.36c1.19,0.52,2.28,1.17,3.28,1.95c1,0.78,1.81,1.75,2.43,2.93c0.62,1.17,0.93,2.6,0.93,4.28
			c0,2.47-0.64,4.49-1.9,6.06c-1.27,1.57-2.97,2.73-5.09,3.47c-2.13,0.74-4.46,1.12-6.99,1.12c-1.74,0-3.54-0.17-5.38-0.5
			c-1.84-0.33-3.65-0.83-5.42-1.5l0.29-9.61h4.71l1.14,5.61l-0.76-1.28c0.89,0.41,1.84,0.73,2.85,0.95c1.01,0.22,2,0.33,2.95,0.33
			c1.01,0,1.93-0.13,2.76-0.4c0.82-0.27,1.49-0.67,2-1.19c0.51-0.52,0.76-1.18,0.76-1.97c0-0.89-0.3-1.61-0.9-2.16
			c-0.6-0.55-1.4-1.03-2.4-1.43c-1-0.4-2.1-0.77-3.31-1.12c-1.21-0.35-2.4-0.77-3.59-1.26c-1.19-0.49-2.28-1.12-3.28-1.88
			c-1-0.76-1.8-1.72-2.4-2.88c-0.6-1.16-0.9-2.61-0.9-4.35c0-2.35,0.55-4.27,1.66-5.78c1.11-1.51,2.62-2.63,4.54-3.38
			c1.92-0.74,4.08-1.12,6.49-1.12c1.68,0,3.46,0.17,5.35,0.52c1.89,0.35,3.75,0.87,5.59,1.57l-0.52,8.85h-4.9l-1.14-4.95l0.86,0.81
			c-0.73-0.25-1.5-0.45-2.31-0.59c-0.81-0.14-1.63-0.21-2.45-0.21c-0.92,0-1.78,0.1-2.57,0.31c-0.79,0.21-1.43,0.55-1.9,1.02
			C142.9,72.36,142.67,72.98,142.67,73.74z"/>
		<path class="st0" d="M175.3,87.39h-3.47l1.66-1.24v8.7l-1.14-1.52l5.28,1.38v4.09h-15.6v-4.09l4.42-1.47l-1.24,1.62V69.22
			l1.43,1.71l-4.61-1.43v-4.09l11.61-0.24h3.81c2.73,0,4.95,0.48,6.68,1.43c1.73,0.95,3,2.23,3.81,3.83c0.81,1.6,1.21,3.4,1.21,5.4
			c0,2.13-0.48,4.07-1.45,5.83c-0.97,1.76-2.47,3.16-4.5,4.19C181.16,86.88,178.53,87.39,175.3,87.39z M176.15,71.03h-3.9l1.24-1.24
			v12.94l-1.66-1.24h3.47c1.81,0,3.16-0.51,4.07-1.52c0.9-1.01,1.36-2.35,1.36-4c0-1.52-0.39-2.73-1.17-3.62
			C178.78,71.47,177.64,71.03,176.15,71.03z"/>
		<path class="st0" d="M228.81,69.27l-4.28,1.71l1.09-2.09v25.97l-1.09-1.57l4.28,1.43v4.09h-13.94v-4.09l4.47-1.47l-1.33,1.62
			V73.88l1.28,0.05l-7.66,16.17l-5.14,0.24l-7.33-16.46h1.19v20.98l-0.86-1.47l4.04,1.33v4.09h-12.99v-4.09l4.28-1.43l-1.09,1.57
			V68.89l1.09,2.05l-4.28-1.43v-4.09l13.32-0.24l6.61,16.89h-0.95l7.04-16.65l12.22-0.24V69.27z"/>
		<path class="st0" d="M248.5,73.74c0,0.79,0.3,1.46,0.9,2c0.6,0.54,1.4,1.01,2.4,1.4c1,0.4,2.11,0.78,3.33,1.17
			c1.22,0.38,2.43,0.83,3.62,1.36s2.28,1.17,3.28,1.95c1,0.78,1.81,1.75,2.43,2.93c0.62,1.17,0.93,2.6,0.93,4.28
			c0,2.47-0.64,4.49-1.9,6.06c-1.27,1.57-2.97,2.73-5.09,3.47c-2.13,0.74-4.46,1.12-6.99,1.12c-1.74,0-3.54-0.17-5.38-0.5
			c-1.84-0.33-3.65-0.83-5.42-1.5l0.29-9.61h4.71l1.14,5.61l-0.76-1.28c0.89,0.41,1.84,0.73,2.85,0.95c1.01,0.22,2,0.33,2.95,0.33
			c1.01,0,1.93-0.13,2.76-0.4c0.82-0.27,1.49-0.67,2-1.19c0.51-0.52,0.76-1.18,0.76-1.97c0-0.89-0.3-1.61-0.9-2.16
			c-0.6-0.55-1.4-1.03-2.4-1.43c-1-0.4-2.1-0.77-3.31-1.12c-1.21-0.35-2.4-0.77-3.59-1.26c-1.19-0.49-2.28-1.12-3.28-1.88
			c-1-0.76-1.8-1.72-2.4-2.88c-0.6-1.16-0.9-2.61-0.9-4.35c0-2.35,0.55-4.27,1.66-5.78c1.11-1.51,2.62-2.63,4.54-3.38
			c1.92-0.74,4.08-1.12,6.49-1.12c1.68,0,3.46,0.17,5.35,0.52c1.89,0.35,3.75,0.87,5.59,1.57l-0.52,8.85h-4.9l-1.14-4.95l0.86,0.81
			c-0.73-0.25-1.5-0.45-2.31-0.59c-0.81-0.14-1.63-0.21-2.45-0.21c-0.92,0-1.78,0.1-2.57,0.31c-0.79,0.21-1.43,0.55-1.9,1.02
			C248.74,72.36,248.5,72.98,248.5,73.74z"/>
		<path class="st0" d="M280.9,72.65c3.93,0,6.97,1.12,9.11,3.35c2.14,2.24,3.21,5.43,3.21,9.58c0,2.89-0.53,5.36-1.59,7.42
			c-1.06,2.06-2.58,3.65-4.54,4.76c-1.97,1.11-4.31,1.66-7.04,1.66c-3.9,0-6.91-1.12-9.01-3.35c-2.11-2.24-3.16-5.43-3.16-9.58
			c0-2.92,0.51-5.41,1.55-7.47c1.03-2.06,2.52-3.64,4.47-4.73C275.83,73.19,278.17,72.65,280.9,72.65z M280.57,78.31
			c-1.52,0-2.62,0.61-3.28,1.83c-0.67,1.22-1,3.21-1,5.97s0.32,4.73,0.98,5.9c0.65,1.17,1.7,1.76,3.16,1.76
			c1.05,0,1.89-0.28,2.52-0.83c0.63-0.55,1.1-1.41,1.4-2.57c0.3-1.16,0.45-2.64,0.45-4.45c0-2.73-0.33-4.68-1-5.85
			C283.13,78.9,282.05,78.31,280.57,78.31z"/>
		<path class="st0" d="M305.77,94.2l-0.52-0.67l3.42,1.19v4.09h-13.89v-4.09l3.43-1.19l-0.52,0.67V66.75l0.48,0.48l-3.38-1.09v-4.04
			l10.99-0.48V94.2z"/>
		<path class="st0" d="M319.95,99.43c-2.12,0-3.92-0.7-5.38-2.09c-1.46-1.39-2.19-3.52-2.19-6.37V77.69l0.71,1.09l-3.62-1.28v-4.04
			l10.99-0.38v16.6c0,1.24,0.28,2.16,0.83,2.76c0.55,0.6,1.29,0.9,2.21,0.9c0.7,0,1.47-0.18,2.31-0.55
			c0.84-0.36,1.69-0.93,2.54-1.69l-0.48,1.33V77.5l0.67,1.28l-3.57-1.28v-4.04l10.99-0.43v21.64l-0.95-1.33l3.81,1.38v4.09
			l-9.18,0.43l-1.05-4.66l1.09,0.33c-1.55,1.52-3.18,2.66-4.87,3.4C323.13,99.06,321.5,99.43,319.95,99.43z"/>
		<path class="st0" d="M350.35,99.43c-2.41,0-4.23-0.72-5.45-2.16c-1.22-1.44-1.83-3.59-1.83-6.45V77.55l1,1h-4.42v-4.23l4.52-1.38
			l-1.09,1.38V67.7l8.09-1.47v8.09l-0.81-1.05h7.18l-0.14,5.28h-7.04l0.81-1v12.18c0,1.33,0.21,2.3,0.62,2.9
			c0.41,0.6,1.05,0.9,1.9,0.9c0.48,0,1.01-0.07,1.59-0.21c0.59-0.14,1.24-0.34,1.97-0.59l1.47,4.33
			C355.83,98.64,353.04,99.43,350.35,99.43z"/>
		<path class="st0" d="M371.27,94.2l-0.52-0.67l3.43,1.19v4.09h-13.89v-4.09l3.43-1.19l-0.52,0.67V78.17l0.48,0.48l-3.38-1.14v-4.04
			l10.99-0.38V94.2z M367.09,70.08c-1.36,0-2.47-0.39-3.31-1.17c-0.84-0.78-1.26-1.89-1.26-3.35c0-1.52,0.44-2.66,1.31-3.4
			c0.87-0.74,1.97-1.12,3.31-1.12c1.3,0,2.38,0.37,3.23,1.09c0.86,0.73,1.28,1.87,1.28,3.42c0,1.49-0.44,2.62-1.31,3.38
			C369.47,69.7,368.39,70.08,367.09,70.08z"/>
		<path class="st0" d="M388.78,72.65c3.93,0,6.97,1.12,9.11,3.35c2.14,2.24,3.21,5.43,3.21,9.58c0,2.89-0.53,5.36-1.59,7.42
			c-1.06,2.06-2.58,3.65-4.54,4.76c-1.97,1.11-4.31,1.66-7.04,1.66c-3.9,0-6.91-1.12-9.01-3.35c-2.11-2.24-3.16-5.43-3.16-9.58
			c0-2.92,0.51-5.41,1.55-7.47c1.03-2.06,2.52-3.64,4.47-4.73C383.71,73.19,386.05,72.65,388.78,72.65z M388.45,78.31
			c-1.52,0-2.62,0.61-3.28,1.83c-0.67,1.22-1,3.21-1,5.97s0.32,4.73,0.98,5.9c0.65,1.17,1.7,1.76,3.16,1.76
			c1.05,0,1.89-0.28,2.52-0.83c0.63-0.55,1.1-1.41,1.4-2.57c0.3-1.16,0.45-2.64,0.45-4.45c0-2.73-0.33-4.68-1-5.85
			C391.01,78.9,389.94,78.31,388.45,78.31z"/>
		<path class="st0" d="M403.33,98.81v-4.09l3.85-1.28l-0.95,1.14V77.55l0.95,1.28l-3.85-1.33v-4.04l9.18-0.43l1,4.47l-1-0.33
			c1.52-1.52,3.14-2.66,4.85-3.4c1.71-0.74,3.34-1.12,4.9-1.12c2.12,0,3.92,0.68,5.38,2.05c1.46,1.36,2.17,3.44,2.14,6.23v13.65
			l-0.67-1.09l3.57,1.24v4.09h-13.46v-4.09l3.38-1.19l-0.86,1.19V82.59c0-1.33-0.29-2.31-0.86-2.93c-0.57-0.62-1.32-0.93-2.24-0.93
			c-0.73,0-1.51,0.19-2.35,0.57c-0.84,0.38-1.67,0.94-2.5,1.66l0.52-1.09v14.84l-0.71-1.14l3.19,1.14v4.09H403.33z"/>
		<path class="st0" d="M442.77,79.88c0,0.6,0.31,1.1,0.93,1.5c0.62,0.4,1.43,0.74,2.43,1.02c1,0.29,2.07,0.59,3.21,0.93
			c1.14,0.33,2.21,0.78,3.21,1.36c1,0.57,1.81,1.32,2.45,2.24c0.63,0.92,0.95,2.11,0.95,3.57c0,2.03-0.55,3.71-1.64,5.04
			c-1.09,1.33-2.57,2.32-4.42,2.97c-1.86,0.65-3.96,0.98-6.3,0.98c-1.36,0-2.8-0.12-4.31-0.36c-1.51-0.24-3.05-0.56-4.64-0.98
			l0.29-7.52h4.99l0.62,4l-0.67-1.09c0.6,0.22,1.27,0.38,2,0.48c0.73,0.1,1.35,0.14,1.86,0.14c0.7,0,1.36-0.07,2-0.21
			c0.63-0.14,1.14-0.38,1.52-0.71c0.38-0.33,0.57-0.75,0.57-1.26c0-0.63-0.32-1.14-0.95-1.52c-0.64-0.38-1.45-0.71-2.45-0.97
			c-1-0.27-2.05-0.58-3.14-0.93s-2.14-0.82-3.14-1.4c-1-0.59-1.81-1.38-2.43-2.38c-0.62-1-0.93-2.27-0.93-3.83
			c0-1.97,0.48-3.56,1.43-4.78c0.95-1.22,2.26-2.12,3.92-2.69c1.66-0.57,3.51-0.86,5.54-0.86c1.43,0,2.91,0.12,4.45,0.36
			s3.12,0.59,4.73,1.07l-0.24,6.8h-5.14l-0.81-3.66l1.09,1.19c-1.43-0.38-2.65-0.57-3.66-0.57s-1.82,0.18-2.43,0.55
			C443.07,78.7,442.77,79.21,442.77,79.88z"/>
	</g>
</g>
</svg>
