<?xml version="1.0" encoding="utf-8"?>
<!-- Generator: Adobe Illustrator 24.0.2, SVG Export Plug-In . SVG Version: 6.00 Build 0)  -->
<svg version="1.1" id="Layer_1" xmlns="http://www.w3.org/2000/svg" xmlns:xlink="http://www.w3.org/1999/xlink" x="0px" y="0px"
	 viewBox="0 0 300 175" style="enable-background:new 0 0 300 175;" xml:space="preserve">
<style type="text/css">
	.st0{fill:#335440;}
	.st1{fill:#B19D83;}
	.st2{fill:#466751;}
</style>
<g>
	<g>
		<g>
			<path class="st0" d="M135.62,130.5c0,0.32,0.09,0.58,0.27,0.79c0.18,0.21,0.43,0.38,0.73,0.51c0.3,0.14,0.63,0.26,0.99,0.37
				c0.36,0.11,0.72,0.23,1.08,0.37c0.36,0.14,0.69,0.31,0.99,0.51c0.3,0.2,0.54,0.46,0.73,0.78c0.18,0.32,0.27,0.72,0.27,1.21
				c0,0.65-0.17,1.18-0.5,1.61c-0.33,0.42-0.78,0.73-1.33,0.93c-0.55,0.2-1.16,0.3-1.83,0.3c-0.47,0-0.94-0.05-1.43-0.14
				s-0.97-0.24-1.44-0.43l0.08-2.36h0.82l0.26,1.71l-0.15-0.26c0.3,0.14,0.62,0.24,0.95,0.32c0.33,0.07,0.66,0.11,0.98,0.11
				c0.39,0,0.76-0.06,1.09-0.18c0.33-0.12,0.6-0.3,0.8-0.54c0.2-0.24,0.3-0.54,0.3-0.89c0-0.34-0.09-0.61-0.27-0.82
				c-0.18-0.21-0.43-0.38-0.73-0.52s-0.63-0.26-0.99-0.37c-0.36-0.11-0.72-0.23-1.08-0.36c-0.36-0.13-0.69-0.29-0.99-0.49
				c-0.3-0.2-0.54-0.45-0.73-0.77c-0.18-0.32-0.27-0.71-0.27-1.19c0-0.61,0.15-1.12,0.45-1.52c0.3-0.4,0.7-0.7,1.21-0.89
				c0.51-0.2,1.08-0.3,1.71-0.3c0.45,0,0.91,0.05,1.39,0.14c0.48,0.1,0.95,0.24,1.42,0.43l-0.12,2.24h-0.84l-0.23-1.59l0.18,0.18
				c-0.26-0.11-0.54-0.2-0.84-0.25c-0.3-0.06-0.6-0.09-0.9-0.09c-0.36,0-0.69,0.05-1,0.14c-0.31,0.1-0.56,0.25-0.75,0.46
				C135.72,129.87,135.62,130.15,135.62,130.5z"/>
			<path class="st0" d="M145.15,137.88c-0.63,0-1.19-0.14-1.67-0.42c-0.48-0.28-0.86-0.69-1.13-1.24c-0.27-0.54-0.4-1.21-0.4-2
				c0-0.81,0.14-1.5,0.42-2.08c0.28-0.58,0.68-1.03,1.19-1.35c0.52-0.32,1.12-0.47,1.82-0.47c0.67,0,1.21,0.14,1.64,0.41
				c0.42,0.27,0.74,0.65,0.95,1.13c0.21,0.48,0.31,1.03,0.31,1.64c0,0.12-0.01,0.24-0.01,0.36c-0.01,0.12-0.02,0.26-0.04,0.41h-5.2
				v-0.95h3.97l-0.12,0.08c0.01-0.37-0.04-0.72-0.14-1.03c-0.1-0.31-0.27-0.56-0.51-0.75c-0.24-0.19-0.55-0.28-0.95-0.28
				c-0.43,0-0.79,0.12-1.07,0.35c-0.28,0.23-0.49,0.55-0.63,0.95c-0.14,0.4-0.21,0.86-0.21,1.39c0,0.56,0.08,1.04,0.23,1.46
				c0.16,0.42,0.39,0.74,0.71,0.98c0.32,0.23,0.71,0.35,1.17,0.35c0.33,0,0.69-0.06,1.08-0.19c0.39-0.13,0.79-0.32,1.2-0.58
				l0.48,0.76c-0.51,0.36-1.03,0.62-1.56,0.8C146.15,137.79,145.64,137.88,145.15,137.88z"/>
			<path class="st0" d="M155.17,137l-0.21-0.29l1.23,0.29v0.73l-2.09,0.1l-0.19-1.32l0.11,0.04c-0.39,0.45-0.82,0.78-1.28,1
				c-0.46,0.22-0.9,0.33-1.33,0.33c-0.53,0-0.99-0.17-1.37-0.52s-0.57-0.87-0.57-1.56c0-0.53,0.11-0.94,0.34-1.24
				c0.23-0.3,0.55-0.51,0.96-0.64c0.41-0.13,0.9-0.19,1.45-0.19h1.67l-0.12,0.15v-1.18c0-0.47-0.12-0.82-0.37-1.02
				c-0.25-0.21-0.59-0.31-1.03-0.31c-0.23,0-0.47,0.02-0.72,0.07c-0.25,0.05-0.52,0.12-0.82,0.22l0.19-0.19l-0.15,1.22h-0.91
				l-0.11-1.83c0.56-0.17,1.07-0.3,1.54-0.39c0.47-0.09,0.91-0.13,1.31-0.13c0.77,0,1.37,0.17,1.79,0.51
				c0.42,0.34,0.64,0.87,0.64,1.61V137z M150.87,135.7c0,0.39,0.1,0.68,0.29,0.87c0.19,0.19,0.43,0.28,0.73,0.28
				c0.29,0,0.62-0.09,0.97-0.28c0.35-0.19,0.69-0.44,1.02-0.75l-0.08,0.34v-1.7l0.12,0.14h-1.46c-0.6,0-1.02,0.09-1.25,0.27
				C150.99,135.06,150.87,135.33,150.87,135.7z"/>
			<path class="st0" d="M156.91,137.74v-0.73l1.18-0.27l-0.16,0.23v-5.69l0.18,0.25l-1.19-0.29v-0.73l2.09-0.1l0.18,1.33l-0.18-0.05
				c0.41-0.43,0.82-0.76,1.21-1c0.4-0.24,0.83-0.36,1.28-0.36c0.29,0,0.6,0.05,0.93,0.14l-0.1,2.18h-0.84l-0.18-1.45l0.15,0.29
				c-0.06-0.02-0.13-0.03-0.2-0.04c-0.07-0.01-0.13-0.01-0.2-0.01c-0.34,0-0.67,0.1-0.99,0.31c-0.32,0.21-0.63,0.47-0.9,0.79
				l0.12-0.4v4.84l-0.18-0.23l1.45,0.27v0.73H156.91z"/>
			<path class="st0" d="M166.06,137.88c-0.59,0-1.13-0.15-1.62-0.44c-0.49-0.29-0.87-0.71-1.15-1.26c-0.28-0.55-0.42-1.21-0.42-1.99
				c0-0.69,0.1-1.27,0.3-1.76c0.2-0.49,0.46-0.88,0.8-1.19c0.33-0.31,0.71-0.54,1.13-0.69c0.42-0.15,0.86-0.22,1.32-0.22
				c0.39,0,0.8,0.05,1.23,0.16c0.43,0.11,0.79,0.24,1.09,0.39l-0.06,1.83h-0.91l-0.19-1.24l0.12,0.11
				c-0.19-0.09-0.41-0.16-0.65-0.19c-0.24-0.04-0.45-0.06-0.65-0.06c-0.45,0-0.83,0.11-1.14,0.34c-0.32,0.22-0.56,0.55-0.72,0.96
				c-0.16,0.42-0.25,0.91-0.25,1.47c0,0.59,0.09,1.08,0.27,1.5c0.18,0.41,0.42,0.72,0.73,0.93c0.31,0.21,0.67,0.31,1.07,0.31
				c0.31,0,0.65-0.06,1-0.19c0.36-0.13,0.73-0.32,1.11-0.59l0.48,0.73c-0.49,0.37-0.98,0.65-1.47,0.83
				C167.02,137.79,166.54,137.88,166.06,137.88z"/>
			<path class="st0" d="M169.48,137.74v-0.73l1.22-0.29l-0.19,0.23v-8.98l0.19,0.25l-1.22-0.29v-0.73l2.4-0.1v4.62l-0.3-0.07
				c0.44-0.46,0.91-0.8,1.41-1.02c0.5-0.22,0.97-0.33,1.42-0.33c0.4,0,0.77,0.08,1.09,0.25s0.58,0.42,0.76,0.75
				c0.18,0.33,0.27,0.76,0.26,1.28v4.34l-0.15-0.22l1.18,0.27v0.73h-3.36v-0.73l1.14-0.27l-0.18,0.23v-4.05
				c0.01-0.53-0.11-0.92-0.35-1.17c-0.24-0.25-0.56-0.37-0.95-0.37c-0.3,0-0.64,0.08-1,0.25s-0.72,0.43-1.07,0.79l0.11-0.26v4.8
				l-0.15-0.22l1.11,0.26v0.73H169.48z"/>
			<path class="st0" d="M181.53,137.88c-0.63,0-1.19-0.14-1.67-0.42c-0.48-0.28-0.86-0.69-1.13-1.24c-0.27-0.54-0.4-1.21-0.4-2
				c0-0.81,0.14-1.5,0.42-2.08c0.28-0.58,0.68-1.03,1.19-1.35c0.52-0.32,1.12-0.47,1.82-0.47c0.67,0,1.21,0.14,1.64,0.41
				c0.42,0.27,0.74,0.65,0.95,1.13c0.21,0.48,0.31,1.03,0.31,1.64c0,0.12-0.01,0.24-0.01,0.36c-0.01,0.12-0.02,0.26-0.04,0.41h-5.2
				v-0.95h3.97l-0.12,0.08c0.01-0.37-0.04-0.72-0.14-1.03c-0.1-0.31-0.27-0.56-0.51-0.75c-0.24-0.19-0.55-0.28-0.95-0.28
				c-0.43,0-0.79,0.12-1.07,0.35c-0.28,0.23-0.49,0.55-0.63,0.95c-0.14,0.4-0.21,0.86-0.21,1.39c0,0.56,0.08,1.04,0.23,1.46
				c0.16,0.42,0.39,0.74,0.71,0.98c0.32,0.23,0.71,0.35,1.17,0.35c0.33,0,0.69-0.06,1.08-0.19c0.39-0.13,0.79-0.32,1.2-0.58
				l0.48,0.76c-0.51,0.36-1.03,0.62-1.56,0.8C182.53,137.79,182.02,137.88,181.53,137.88z"/>
			<path class="st0" d="M187.36,132.25c0,0.27,0.09,0.47,0.27,0.62c0.18,0.15,0.42,0.28,0.71,0.38c0.29,0.1,0.61,0.2,0.94,0.3
				c0.33,0.1,0.65,0.23,0.94,0.38c0.29,0.16,0.53,0.36,0.72,0.63c0.19,0.26,0.28,0.6,0.28,1.02c0,0.49-0.13,0.91-0.4,1.25
				c-0.27,0.34-0.64,0.6-1.11,0.78c-0.47,0.18-0.99,0.27-1.56,0.27c-0.34,0-0.7-0.03-1.07-0.08c-0.38-0.06-0.76-0.14-1.15-0.25
				l0.09-1.93h0.87l0.15,1.3l-0.14-0.16c0.2,0.06,0.42,0.1,0.65,0.13c0.23,0.03,0.45,0.05,0.64,0.05c0.28,0,0.55-0.04,0.8-0.12
				s0.46-0.21,0.62-0.38c0.16-0.17,0.24-0.38,0.24-0.63c0-0.27-0.09-0.49-0.28-0.65c-0.19-0.16-0.43-0.29-0.72-0.39
				c-0.29-0.1-0.6-0.2-0.93-0.3c-0.32-0.1-0.63-0.23-0.93-0.38c-0.29-0.16-0.53-0.36-0.71-0.62c-0.18-0.26-0.27-0.6-0.27-1.03
				c0-0.49,0.12-0.88,0.37-1.19c0.25-0.31,0.58-0.54,0.99-0.69c0.41-0.15,0.85-0.22,1.32-0.22c0.32,0,0.67,0.03,1.06,0.1
				c0.39,0.06,0.79,0.16,1.2,0.29l-0.07,1.66h-0.88l-0.21-1.11l0.19,0.22c-0.46-0.14-0.88-0.21-1.26-0.21
				c-0.4,0-0.73,0.09-0.99,0.26S187.36,131.95,187.36,132.25z"/>
			<path class="st0" d="M197.34,136.9l-0.12-0.17l1.15,0.27v0.73h-3.42v-0.73l1.15-0.27l-0.14,0.17v-5.53l0.12,0.12l-1.14-0.26
				v-0.73l2.39-0.08V136.9z M196.58,129.08c-0.25,0-0.45-0.08-0.61-0.23c-0.16-0.16-0.24-0.37-0.24-0.66c0-0.29,0.08-0.51,0.25-0.67
				c0.17-0.15,0.37-0.23,0.62-0.23c0.26,0,0.46,0.08,0.63,0.23c0.16,0.15,0.24,0.37,0.24,0.67c0,0.29-0.08,0.51-0.25,0.66
				C197.04,129.01,196.83,129.08,196.58,129.08z"/>
			<path class="st0" d="M199.14,137.74v-0.73l1.21-0.29l-0.19,0.23v-5.68l0.19,0.25l-1.21-0.29v-0.73l2.09-0.1l0.18,1.33l-0.18-0.07
				c0.45-0.46,0.92-0.8,1.42-1.02c0.5-0.22,0.97-0.33,1.42-0.33c0.61,0,1.12,0.19,1.52,0.56c0.4,0.38,0.6,0.96,0.59,1.74v4.32
				l-0.15-0.22l1.17,0.27v0.73h-3.35v-0.73l1.14-0.27l-0.18,0.23v-4.05c0-0.53-0.12-0.92-0.36-1.17c-0.24-0.25-0.55-0.37-0.95-0.37
				c-0.31,0-0.65,0.08-1.01,0.25c-0.36,0.17-0.72,0.43-1.06,0.78l0.1-0.25v4.8l-0.15-0.22l1.11,0.26v0.73H199.14z"/>
			<path class="st0" d="M210.39,137.88c-0.53,0-0.94-0.16-1.23-0.49s-0.43-0.81-0.43-1.46v-4.72l0.19,0.19h-1.37v-0.74l1.4-0.25
				l-0.22,0.26v-1.83l1.37-0.23v2.06l-0.16-0.21h2.13l-0.04,0.93h-2.09l0.16-0.19v4.53c0,0.38,0.07,0.66,0.21,0.84
				c0.14,0.17,0.35,0.26,0.63,0.26c0.16,0,0.33-0.02,0.51-0.08c0.19-0.05,0.39-0.12,0.61-0.23l0.27,0.78
				C211.64,137.69,210.99,137.88,210.39,137.88z"/>
			<path class="st0" d="M216.37,130.33c1.03,0,1.83,0.32,2.42,0.95c0.59,0.64,0.88,1.53,0.88,2.7c0,0.79-0.14,1.47-0.43,2.06
				c-0.28,0.59-0.69,1.04-1.21,1.36c-0.53,0.32-1.16,0.48-1.9,0.48c-1.02,0-1.81-0.31-2.37-0.94c-0.57-0.63-0.85-1.52-0.85-2.68
				c0-0.81,0.14-1.51,0.41-2.1s0.67-1.04,1.19-1.35C215.02,130.49,215.64,130.33,216.37,130.33z M216.3,131.33
				c-0.65,0-1.14,0.25-1.48,0.74c-0.33,0.49-0.5,1.2-0.5,2.12c0,0.9,0.16,1.58,0.48,2.02c0.32,0.44,0.79,0.66,1.4,0.66
				c0.45,0,0.82-0.11,1.12-0.33c0.3-0.22,0.52-0.54,0.67-0.97c0.15-0.43,0.23-0.94,0.23-1.53c0-0.91-0.16-1.59-0.49-2.04
				C217.4,131.56,216.93,131.33,216.3,131.33z"/>
			<path class="st0" d="M225.22,130.5c0,0.32,0.09,0.58,0.27,0.79c0.18,0.21,0.43,0.38,0.73,0.51s0.63,0.26,0.99,0.37
				c0.36,0.11,0.72,0.23,1.08,0.37c0.36,0.14,0.69,0.31,0.99,0.51c0.3,0.2,0.54,0.46,0.73,0.78c0.18,0.32,0.27,0.72,0.27,1.21
				c0,0.65-0.17,1.18-0.5,1.61c-0.33,0.42-0.78,0.73-1.33,0.93c-0.55,0.2-1.16,0.3-1.83,0.3c-0.47,0-0.94-0.05-1.43-0.14
				s-0.97-0.24-1.44-0.43l0.08-2.36h0.82l0.26,1.71l-0.15-0.26c0.3,0.14,0.62,0.24,0.95,0.32c0.33,0.07,0.66,0.11,0.98,0.11
				c0.39,0,0.76-0.06,1.09-0.18c0.33-0.12,0.6-0.3,0.8-0.54c0.2-0.24,0.3-0.54,0.3-0.89c0-0.34-0.09-0.61-0.27-0.82
				c-0.18-0.21-0.43-0.38-0.73-0.52s-0.63-0.26-0.99-0.37c-0.36-0.11-0.72-0.23-1.08-0.36c-0.36-0.13-0.69-0.29-0.99-0.49
				c-0.3-0.2-0.54-0.45-0.73-0.77c-0.18-0.32-0.27-0.71-0.27-1.19c0-0.61,0.15-1.12,0.45-1.52c0.3-0.4,0.7-0.7,1.21-0.89
				c0.51-0.2,1.08-0.3,1.71-0.3c0.45,0,0.91,0.05,1.39,0.14c0.48,0.1,0.95,0.24,1.42,0.43l-0.12,2.24h-0.84l-0.23-1.59l0.18,0.18
				c-0.26-0.11-0.54-0.2-0.84-0.25c-0.3-0.06-0.6-0.09-0.9-0.09c-0.36,0-0.69,0.05-1,0.14c-0.31,0.1-0.56,0.25-0.75,0.46
				C225.32,129.87,225.22,130.15,225.22,130.5z"/>
			<path class="st0" d="M237.12,137l-0.21-0.29l1.23,0.29v0.73l-2.09,0.1l-0.19-1.32l0.11,0.04c-0.39,0.45-0.82,0.78-1.28,1
				c-0.46,0.22-0.9,0.33-1.33,0.33c-0.53,0-0.99-0.17-1.37-0.52s-0.57-0.87-0.57-1.56c0-0.53,0.11-0.94,0.34-1.24
				c0.23-0.3,0.55-0.51,0.96-0.64c0.41-0.13,0.9-0.19,1.45-0.19h1.67l-0.12,0.15v-1.18c0-0.47-0.12-0.82-0.37-1.02
				c-0.25-0.21-0.59-0.31-1.03-0.31c-0.23,0-0.47,0.02-0.72,0.07c-0.25,0.05-0.52,0.12-0.82,0.22l0.19-0.19l-0.15,1.22h-0.91
				l-0.11-1.83c0.56-0.17,1.07-0.3,1.54-0.39c0.47-0.09,0.91-0.13,1.31-0.13c0.77,0,1.37,0.17,1.79,0.51
				c0.42,0.34,0.64,0.87,0.64,1.61V137z M232.83,135.7c0,0.39,0.1,0.68,0.29,0.87c0.19,0.19,0.43,0.28,0.73,0.28
				c0.29,0,0.62-0.09,0.97-0.28c0.35-0.19,0.69-0.44,1.02-0.75l-0.08,0.34v-1.7l0.12,0.14h-1.46c-0.6,0-1.02,0.09-1.25,0.27
				C232.94,135.06,232.83,135.33,232.83,135.7z"/>
			<path class="st0" d="M241.08,136.9l-0.12-0.17l1.14,0.27v0.73h-3.42v-0.73l1.15-0.27l-0.12,0.17v-8.82l0.11,0.12l-1.14-0.26
				v-0.73l2.4-0.1V136.9z"/>
			<path class="st0" d="M246.18,137.88c-0.63,0-1.19-0.14-1.67-0.42c-0.48-0.28-0.86-0.69-1.13-1.24c-0.27-0.54-0.4-1.21-0.4-2
				c0-0.81,0.14-1.5,0.42-2.08c0.28-0.58,0.68-1.03,1.19-1.35c0.52-0.32,1.12-0.47,1.82-0.47c0.67,0,1.21,0.14,1.64,0.41
				c0.42,0.27,0.74,0.65,0.95,1.13c0.21,0.48,0.31,1.03,0.31,1.64c0,0.12-0.01,0.24-0.01,0.36c-0.01,0.12-0.02,0.26-0.04,0.41h-5.2
				v-0.95h3.97l-0.12,0.08c0.01-0.37-0.04-0.72-0.14-1.03c-0.1-0.31-0.27-0.56-0.51-0.75c-0.24-0.19-0.55-0.28-0.95-0.28
				c-0.43,0-0.79,0.12-1.07,0.35c-0.28,0.23-0.49,0.55-0.63,0.95c-0.14,0.4-0.21,0.86-0.21,1.39c0,0.56,0.08,1.04,0.23,1.46
				c0.16,0.42,0.39,0.74,0.71,0.98c0.32,0.23,0.71,0.35,1.17,0.35c0.33,0,0.69-0.06,1.08-0.19c0.39-0.13,0.79-0.32,1.2-0.58
				l0.48,0.76c-0.51,0.36-1.03,0.62-1.56,0.8C247.18,137.79,246.67,137.88,246.18,137.88z"/>
			<path class="st0" d="M252.01,132.25c0,0.27,0.09,0.47,0.27,0.62c0.18,0.15,0.42,0.28,0.71,0.38c0.29,0.1,0.61,0.2,0.94,0.3
				c0.33,0.1,0.65,0.23,0.94,0.38c0.29,0.16,0.53,0.36,0.72,0.63c0.19,0.26,0.28,0.6,0.28,1.02c0,0.49-0.13,0.91-0.4,1.25
				c-0.27,0.34-0.64,0.6-1.11,0.78c-0.47,0.18-0.99,0.27-1.56,0.27c-0.34,0-0.7-0.03-1.07-0.08c-0.38-0.06-0.76-0.14-1.15-0.25
				l0.09-1.93h0.87l0.15,1.3l-0.14-0.16c0.2,0.06,0.42,0.1,0.65,0.13s0.45,0.05,0.64,0.05c0.28,0,0.55-0.04,0.8-0.12
				s0.46-0.21,0.62-0.38c0.16-0.17,0.24-0.38,0.24-0.63c0-0.27-0.09-0.49-0.28-0.65c-0.19-0.16-0.43-0.29-0.72-0.39
				c-0.29-0.1-0.6-0.2-0.93-0.3c-0.32-0.1-0.63-0.23-0.93-0.38c-0.29-0.16-0.53-0.36-0.71-0.62c-0.18-0.26-0.27-0.6-0.27-1.03
				c0-0.49,0.12-0.88,0.37-1.19c0.25-0.31,0.58-0.54,0.99-0.69c0.41-0.15,0.85-0.22,1.32-0.22c0.32,0,0.67,0.03,1.06,0.1
				c0.39,0.06,0.79,0.16,1.2,0.29l-0.07,1.66h-0.88l-0.21-1.11l0.19,0.22c-0.46-0.14-0.88-0.21-1.26-0.21
				c-0.4,0-0.73,0.09-0.99,0.26S252.01,131.95,252.01,132.25z"/>
		</g>
	</g>
	<g>
		<g>
			<g>
				<path class="st0" d="M133.51,54.76c0,1.25,0.48,2.31,1.43,3.16c0.95,0.85,2.22,1.59,3.8,2.22c1.58,0.63,3.34,1.24,5.27,1.84
					c1.93,0.6,3.84,1.32,5.72,2.14c1.88,0.83,3.61,1.86,5.19,3.08c1.58,1.23,2.86,2.77,3.84,4.63c0.98,1.86,1.47,4.11,1.47,6.77
					c0,3.91-1,7.11-3.01,9.59c-2.01,2.48-4.69,4.31-8.05,5.49c-3.36,1.18-7.05,1.77-11.06,1.77c-2.76,0-5.59-0.26-8.5-0.79
					c-2.91-0.53-5.77-1.32-8.58-2.37l0.45-15.2h7.45l1.81,8.88l-1.2-2.03c1.4,0.65,2.91,1.15,4.52,1.5c1.6,0.35,3.16,0.53,4.66,0.53
					c1.6,0,3.06-0.21,4.36-0.64c1.3-0.43,2.36-1.05,3.16-1.88s1.2-1.87,1.2-3.12c0-1.4-0.48-2.55-1.43-3.42
					c-0.95-0.88-2.22-1.63-3.8-2.26c-1.58-0.63-3.32-1.22-5.23-1.77c-1.91-0.55-3.8-1.22-5.68-1.99c-1.88-0.78-3.61-1.77-5.19-2.97
					s-2.85-2.72-3.8-4.55c-0.95-1.83-1.43-4.12-1.43-6.88c0-3.71,0.88-6.76,2.63-9.14c1.76-2.38,4.15-4.16,7.19-5.34
					c3.03-1.18,6.46-1.77,10.27-1.77c2.66,0,5.48,0.28,8.46,0.83c2.98,0.55,5.93,1.38,8.84,2.48l-0.83,13.99h-7.75l-1.81-7.82
					l1.35,1.28c-1.15-0.4-2.37-0.71-3.65-0.94c-1.28-0.23-2.57-0.34-3.87-0.34c-1.46,0-2.81,0.16-4.06,0.49
					c-1.25,0.33-2.26,0.87-3.01,1.62C133.88,52.58,133.51,53.56,133.51,54.76z"/>
				<path class="st0" d="M185.12,76.36h-5.49l2.63-1.96v13.77l-1.81-2.41l8.35,2.18v6.47h-24.68v-6.47l7-2.33l-1.96,2.56V47.62
					l2.26,2.71l-7.3-2.26V41.6l18.36-0.38h6.02c4.31,0,7.84,0.75,10.57,2.26c2.73,1.5,4.74,3.52,6.02,6.06
					c1.28,2.53,1.92,5.38,1.92,8.54c0,3.36-0.76,6.43-2.29,9.22s-3.9,4.99-7.11,6.62C194.4,75.54,190.24,76.36,185.12,76.36z
					 M186.48,50.48h-6.17l1.96-1.96v20.46l-2.63-1.96h5.49c2.86,0,5-0.8,6.43-2.41c1.43-1.6,2.14-3.71,2.14-6.32
					c0-2.41-0.61-4.31-1.84-5.72C190.63,51.18,188.83,50.48,186.48,50.48z"/>
				<path class="st0" d="M269.77,47.69l-6.77,2.71l1.73-3.31v41.08l-1.73-2.48l6.77,2.26v6.47h-22.04v-6.47l7.07-2.33l-2.11,2.56
					V54.99l2.03,0.08L242.6,80.65l-8.13,0.38l-11.59-26.03h1.88v33.18l-1.35-2.33l6.4,2.11v6.47h-20.54v-6.47l6.77-2.26l-1.73,2.48
					V47.09l1.73,3.23l-6.77-2.26V41.6l21.07-0.38l10.46,26.71h-1.5l11.14-26.33l19.34-0.38V47.69z"/>
				<path class="st0" d="M123.33,105.45c0,0.46,0.17,0.85,0.52,1.16c0.35,0.31,0.82,0.59,1.4,0.82s1.23,0.46,1.94,0.68
					c0.71,0.22,1.41,0.48,2.1,0.79c0.69,0.3,1.33,0.68,1.91,1.13c0.58,0.45,1.05,1.02,1.41,1.7c0.36,0.68,0.54,1.51,0.54,2.49
					c0,1.44-0.37,2.61-1.11,3.53c-0.74,0.91-1.72,1.59-2.96,2.02c-1.24,0.43-2.59,0.65-4.07,0.65c-1.02,0-2.06-0.1-3.13-0.29
					c-1.07-0.19-2.12-0.49-3.15-0.87l0.17-5.59h2.74l0.66,3.27l-0.44-0.75c0.52,0.24,1.07,0.42,1.66,0.55
					c0.59,0.13,1.16,0.19,1.71,0.19c0.59,0,1.13-0.08,1.61-0.24c0.48-0.16,0.87-0.39,1.16-0.69c0.3-0.3,0.44-0.69,0.44-1.15
					c0-0.52-0.18-0.94-0.52-1.26c-0.35-0.32-0.82-0.6-1.4-0.83c-0.58-0.23-1.22-0.45-1.92-0.65c-0.7-0.2-1.4-0.45-2.09-0.73
					c-0.69-0.29-1.33-0.65-1.91-1.09s-1.05-1-1.4-1.67s-0.52-1.52-0.52-2.53c0-1.36,0.32-2.48,0.97-3.36
					c0.65-0.88,1.53-1.53,2.64-1.96c1.12-0.43,2.38-0.65,3.78-0.65c0.98,0,2.01,0.1,3.11,0.31c1.1,0.2,2.18,0.51,3.25,0.91
					l-0.3,5.15h-2.85l-0.66-2.88l0.5,0.47c-0.42-0.15-0.87-0.26-1.34-0.35c-0.47-0.08-0.95-0.12-1.42-0.12
					c-0.54,0-1.03,0.06-1.49,0.18c-0.46,0.12-0.83,0.32-1.11,0.6C123.47,104.65,123.33,105.01,123.33,105.45z"/>
				<path class="st0" d="M143.69,120.4c-1.85,0-3.42-0.37-4.72-1.12s-2.3-1.86-2.99-3.33c-0.69-1.47-1.04-3.27-1.04-5.4
					c0-1.73,0.22-3.25,0.66-4.55c0.44-1.3,1.07-2.39,1.9-3.27c0.82-0.88,1.8-1.53,2.95-1.96c1.14-0.43,2.43-0.65,3.87-0.65
					c1.4,0,2.66,0.21,3.76,0.64c1.11,0.42,2.05,1.05,2.82,1.88c0.77,0.83,1.36,1.85,1.77,3.07c0.41,1.22,0.61,2.6,0.61,4.15
					c0,2.18-0.39,4.05-1.18,5.63c-0.78,1.58-1.89,2.79-3.32,3.64C147.37,119.97,145.67,120.4,143.69,120.4z M144.02,116.74
					c0.81,0,1.52-0.2,2.13-0.6c0.61-0.4,1.09-1.08,1.44-2.05c0.35-0.97,0.52-2.31,0.52-4.03c0-1.59-0.16-2.84-0.47-3.76
					c-0.31-0.92-0.77-1.58-1.36-1.96c-0.59-0.39-1.32-0.58-2.19-0.58c-0.81,0-1.52,0.19-2.12,0.57c-0.6,0.38-1.06,1.05-1.38,2.01
					c-0.32,0.96-0.48,2.31-0.48,4.04c0,1.55,0.15,2.79,0.44,3.72s0.73,1.6,1.3,2.02C142.44,116.54,143.16,116.74,144.02,116.74z"/>
				<path class="st0" d="M166.36,113.73h2.82v6.31h-14.2v-2.38l2.38-0.8l-0.53,0.89v-14.86l0.53,0.89l-2.38-0.77v-2.38l8.66-0.14
					v2.38l-2.46,0.91l0.47-0.89v14.44l-0.72-0.72h5.37l-0.64,0.75L166.36,113.73z"/>
				<path class="st0" d="M180.25,100.61l8.5-0.14v2.38l-2.35,0.94l0.5-1.16v9.66c0,1.05-0.1,2.01-0.3,2.86
					c-0.2,0.86-0.52,1.61-0.95,2.26c-0.43,0.65-0.97,1.19-1.62,1.65c-0.65,0.45-1.41,0.79-2.28,1.01c-0.88,0.22-1.88,0.33-3,0.33
					c-1.57,0-2.85-0.19-3.85-0.57c-1-0.38-1.77-0.88-2.32-1.51c-0.55-0.63-0.95-1.29-1.18-1.99c-0.23-0.7-0.37-1.37-0.43-2.02
					c-0.06-0.65-0.08-1.19-0.08-1.63v-10.04l0.52,1.13l-2.38-0.77v-2.38l8.52-0.14v2.38l-2.3,0.94l0.44-1.16v10.04
					c0,0.5,0.02,0.95,0.07,1.37c0.05,0.41,0.12,0.79,0.23,1.12c0.11,0.33,0.28,0.62,0.51,0.86c0.23,0.24,0.54,0.42,0.91,0.54
					c0.38,0.12,0.84,0.18,1.4,0.18c0.57,0,1.05-0.07,1.43-0.19c0.38-0.13,0.69-0.32,0.94-0.58c0.25-0.26,0.44-0.57,0.58-0.93
					c0.14-0.36,0.23-0.77,0.26-1.23c0.04-0.46,0.06-0.97,0.06-1.52v-9.66l0.42,1.08l-2.24-0.72V100.61z"/>
				<path class="st0" d="M193.14,120.04v-2.38l2.99-0.86l-0.83,1.19v-14.8l0.94,0.72h-4.12l1.05-0.91l-0.8,3.49h-2.85v-6h16.35v6
					h-2.82l-0.78-3.29l1.02,0.72h-4.15l0.97-0.72v14.8l-0.8-1.19l2.93,0.86v2.38H193.14z"/>
				<path class="st0" d="M215.22,102.85l-2.32,0.94l0.47-0.69v14.42l-0.47-0.66l2.32,0.8v2.38h-8.52v-2.38l2.27-0.78l-0.42,0.64
					V103.1l0.58,0.72l-2.43-0.83v-2.38l8.52-0.14V102.85z"/>
				<path class="st0" d="M225.68,120.4c-1.85,0-3.42-0.37-4.72-1.12c-1.3-0.75-2.3-1.86-2.99-3.33c-0.69-1.47-1.04-3.27-1.04-5.4
					c0-1.73,0.22-3.25,0.66-4.55c0.44-1.3,1.07-2.39,1.9-3.27c0.82-0.88,1.8-1.53,2.95-1.96c1.14-0.43,2.43-0.65,3.87-0.65
					c1.4,0,2.66,0.21,3.76,0.64c1.11,0.42,2.05,1.05,2.82,1.88c0.77,0.83,1.36,1.85,1.77,3.07c0.41,1.22,0.61,2.6,0.61,4.15
					c0,2.18-0.39,4.05-1.18,5.63c-0.78,1.58-1.89,2.79-3.32,3.64C229.36,119.97,227.65,120.4,225.68,120.4z M226.01,116.74
					c0.81,0,1.52-0.2,2.13-0.6c0.61-0.4,1.09-1.08,1.44-2.05c0.35-0.97,0.52-2.31,0.52-4.03c0-1.59-0.16-2.84-0.47-3.76
					c-0.31-0.92-0.77-1.58-1.36-1.96c-0.59-0.39-1.32-0.58-2.19-0.58c-0.81,0-1.52,0.19-2.12,0.57c-0.6,0.38-1.06,1.05-1.38,2.01
					c-0.32,0.96-0.48,2.31-0.48,4.04c0,1.55,0.15,2.79,0.44,3.72c0.3,0.93,0.73,1.6,1.3,2.02
					C224.43,116.54,225.15,116.74,226.01,116.74z"/>
				<path class="st0" d="M249.06,100.61l7.66-0.14v2.38l-2.49,0.97l0.64-0.97v17.18h-5.53l-7.22-14.5h0.66v12.2l-0.69-0.94
					l2.55,0.86v2.38h-7.66v-2.38l2.55-0.86l-0.69,0.94v-14.86l0.44,0.86l-2.3-0.75v-2.38l7.55-0.14l7.08,14.17h-0.69v-11.76
					l0.69,0.94l-2.55-0.83V100.61z"/>
				<path class="st0" d="M262.7,105.45c0,0.46,0.17,0.85,0.52,1.16c0.35,0.31,0.82,0.59,1.4,0.82s1.23,0.46,1.94,0.68
					c0.71,0.22,1.41,0.48,2.1,0.79c0.69,0.3,1.33,0.68,1.91,1.13c0.58,0.45,1.05,1.02,1.41,1.7c0.36,0.68,0.54,1.51,0.54,2.49
					c0,1.44-0.37,2.61-1.11,3.53c-0.74,0.91-1.72,1.59-2.96,2.02c-1.24,0.43-2.59,0.65-4.07,0.65c-1.02,0-2.06-0.1-3.13-0.29
					c-1.07-0.19-2.12-0.49-3.15-0.87l0.17-5.59h2.74l0.66,3.27l-0.44-0.75c0.52,0.24,1.07,0.42,1.66,0.55
					c0.59,0.13,1.16,0.19,1.71,0.19c0.59,0,1.13-0.08,1.61-0.24c0.48-0.16,0.87-0.39,1.16-0.69c0.3-0.3,0.44-0.69,0.44-1.15
					c0-0.52-0.18-0.94-0.52-1.26c-0.35-0.32-0.82-0.6-1.4-0.83s-1.22-0.45-1.92-0.65c-0.7-0.2-1.4-0.45-2.09-0.73
					c-0.69-0.29-1.33-0.65-1.91-1.09c-0.58-0.44-1.05-1-1.4-1.67s-0.52-1.52-0.52-2.53c0-1.36,0.32-2.48,0.97-3.36
					c0.65-0.88,1.53-1.53,2.64-1.96c1.12-0.43,2.38-0.65,3.78-0.65c0.98,0,2.02,0.1,3.11,0.31c1.1,0.2,2.18,0.51,3.25,0.91
					l-0.3,5.15h-2.85l-0.66-2.88l0.5,0.47c-0.42-0.15-0.87-0.26-1.34-0.35c-0.47-0.08-0.95-0.12-1.42-0.12
					c-0.54,0-1.03,0.06-1.49,0.18c-0.46,0.12-0.83,0.32-1.11,0.6C262.84,104.65,262.7,105.01,262.7,105.45z"/>
			</g>
		</g>
		<g>
			<path class="st0" d="M101.12,133.87H33.68c-0.87,0-1.58-0.71-1.58-1.58v-1.71c0-0.87,0.71-1.58,1.58-1.58h67.44
				c0.87,0,1.58,0.71,1.58,1.58v1.71C102.7,133.17,101.99,133.87,101.12,133.87z"/>
			<path class="st0" d="M69.84,130.63h-4.78V59.12c0-1.13,0.38-2.22,1.09-3.1l1.3-1.63l1.3,1.63c0.7,0.88,1.09,1.97,1.09,3.1V130.63
				z"/>
			<path class="st1" d="M69.84,58.64l0.32-0.55c1.16-1.98,2.58-3.8,4.22-5.4l0.52-0.5l-0.25,22.21l-4.82,5.09V58.64z"/>
			<path class="st0" d="M69.84,79.48l5.89-6.2c0.9-0.95,1.98-1.71,3.17-2.25l0,0c2.27-1.03,4.68-1.72,7.15-2.06l1.76-0.24
				L69.84,86.54V79.48z"/>
			<polygon class="st1" points="69.84,91.03 94.77,66.52 97.45,71.25 69.84,98.19 			"/>
			<path class="st1" d="M69.84,102.56L95.7,77.25c0.77-0.76,1.7-1.34,2.72-1.72l6.7-2.46l-5.17,7.21c-0.26,0.37-0.56,0.71-0.89,1.03
				l-29.22,28.42V102.56z"/>
			<g>
				<path class="st2" d="M78.88,117.58c3.77-1.06,8.49-2.69,13.05-5.11c9.89-5.23,15.5-15.76,15.5-15.76l-0.63-0.03
					c-1.76,0.22-5.94,1.28-12.46,6.05C88.33,107.13,82.21,113.76,78.88,117.58z"/>
				<path class="st0" d="M92.9,99.85L92.9,99.85c-1.29,0.74-2.49,1.64-3.56,2.68l-17.16,16.62c1.2-0.21,3.63-0.7,6.7-1.56
					c3.33-3.82,9.45-10.45,15.47-14.85c6.52-4.77,10.7-5.82,12.46-6.05l-0.7-0.03C101.49,96.45,96.91,97.56,92.9,99.85z"/>
			</g>
			<circle class="st2" cx="97.45" cy="66.9" r="5.05"/>
			<circle class="st2" cx="83.65" cy="58.71" r="6.55"/>
			<circle class="st2" cx="67.45" cy="44.24" r="7.12"/>
			<g>
				<path class="st1" d="M99.34,85.53l-29.5,28.71v5.36c0.69-0.11,1.49-0.25,2.29-0.42l30.56-29.6L99.34,85.53z"/>
			</g>
			<circle class="st2" cx="100.97" cy="87.54" r="4.15"/>
			<path class="st1" d="M65.06,58.64l-0.32-0.55c-1.16-1.98-2.58-3.8-4.22-5.4L60,52.19l0.25,22.21l4.82,5.09V58.64z"/>
			<path class="st0" d="M65.06,79.48l-5.89-6.2c-0.9-0.95-1.98-1.71-3.17-2.25h0c-2.27-1.03-4.68-1.72-7.15-2.06l-1.76-0.24
				l17.97,17.81V79.48z"/>
			<polygon class="st1" points="65.06,91.03 40.13,66.52 37.46,71.25 65.06,98.19 			"/>
			<path class="st1" d="M65.06,102.56L39.2,77.25c-0.77-0.76-1.7-1.34-2.72-1.72l-6.7-2.46l5.17,7.21c0.26,0.37,0.56,0.71,0.89,1.03
				l29.22,28.42V102.56z"/>
			<g>
				<path class="st2" d="M56.03,117.58c-3.77-1.06-8.49-2.69-13.05-5.11c-9.89-5.23-15.5-15.76-15.5-15.76l0.63-0.03
					c1.76,0.22,5.94,1.28,12.46,6.05C46.58,107.13,52.7,113.76,56.03,117.58z"/>
				<path class="st0" d="M42,99.85L42,99.85c1.29,0.74,2.49,1.64,3.56,2.68l17.16,16.62c-1.2-0.21-3.63-0.7-6.7-1.56
					c-3.33-3.82-9.45-10.45-15.46-14.85c-6.52-4.77-10.7-5.82-12.46-6.05l0.7-0.03C33.42,96.45,37.99,97.56,42,99.85z"/>
			</g>
			<circle class="st2" cx="37.46" cy="66.9" r="5.05"/>
			<circle class="st2" cx="51.26" cy="58.71" r="6.55"/>
			<g>
				<path class="st1" d="M35.56,85.53l29.5,28.71v5.36c-0.69-0.11-1.49-0.25-2.29-0.42L32.2,89.59L35.56,85.53z"/>
			</g>
			<circle class="st2" cx="33.94" cy="87.54" r="4.15"/>
		</g>
	</g>
</g>
</svg>
