<?xml version="1.0" encoding="utf-8"?>
<!-- Generator: Adobe Illustrator 24.0.2, SVG Export Plug-In . SVG Version: 6.00 Build 0)  -->
<svg version="1.1" id="Layer_1" xmlns="http://www.w3.org/2000/svg" xmlns:xlink="http://www.w3.org/1999/xlink" x="0px" y="0px"
	 viewBox="0 0 300 175" style="enable-background:new 0 0 300 175;" xml:space="preserve">
<style type="text/css">
	.st0{fill:#335440;}
	.st1{fill:#B19D83;}
	.st2{fill:#466751;}
</style>
<g>
	<g>
		<g>
			<path class="st0" d="M124.25,62.01c0,1.33,0.51,2.45,1.52,3.35c1.01,0.91,2.36,1.69,4.03,2.36c1.68,0.67,3.54,1.32,5.59,1.96
				c2.05,0.64,4.07,1.4,6.07,2.28c2,0.88,3.83,1.97,5.51,3.28c1.68,1.31,3.03,2.94,4.07,4.91c1.04,1.97,1.56,4.37,1.56,7.19
				c0,4.15-1.07,7.55-3.19,10.18c-2.13,2.64-4.98,4.58-8.55,5.83c-3.57,1.25-7.48,1.88-11.74,1.88c-2.93,0-5.94-0.28-9.03-0.84
				c-3.09-0.56-6.12-1.4-9.11-2.52l0.48-16.13h7.91l1.92,9.43L120.02,93c1.49,0.69,3.09,1.22,4.79,1.6c1.7,0.37,3.35,0.56,4.95,0.56
				c1.7,0,3.25-0.23,4.63-0.68c1.38-0.45,2.5-1.12,3.35-2c0.85-0.88,1.28-1.98,1.28-3.31c0-1.49-0.51-2.7-1.52-3.64
				c-1.01-0.93-2.36-1.73-4.03-2.4c-1.68-0.67-3.53-1.29-5.55-1.88c-2.02-0.59-4.03-1.29-6.03-2.12c-2-0.82-3.83-1.88-5.51-3.16
				c-1.68-1.28-3.02-2.89-4.03-4.83c-1.01-1.94-1.52-4.38-1.52-7.31c0-3.94,0.93-7.18,2.8-9.7c1.86-2.53,4.41-4.42,7.63-5.67
				c3.22-1.25,6.86-1.88,10.9-1.88c2.82,0,5.82,0.29,8.99,0.88c3.17,0.59,6.3,1.47,9.39,2.64l-0.88,14.86h-8.23l-1.92-8.31
				l1.44,1.36c-1.23-0.43-2.52-0.76-3.87-1c-1.36-0.24-2.73-0.36-4.11-0.36c-1.54,0-2.98,0.17-4.31,0.52
				c-1.33,0.35-2.4,0.92-3.19,1.72C124.65,59.7,124.25,60.73,124.25,62.01z"/>
			<path class="st0" d="M179.04,84.94h-5.83l2.8-2.08v14.62l-1.92-2.56l8.87,2.32v6.87h-26.2v-6.87l7.43-2.48l-2.08,2.72V54.42
				l2.4,2.88l-7.75-2.4v-6.87l19.49-0.4h6.39c4.58,0,8.32,0.8,11.22,2.4c2.9,1.6,5.03,3.74,6.39,6.43c1.36,2.69,2.04,5.71,2.04,9.07
				c0,3.57-0.81,6.83-2.44,9.78c-1.62,2.96-4.14,5.3-7.55,7.03C188.89,84.07,184.47,84.94,179.04,84.94z M180.48,57.46h-6.55
				l2.08-2.08v21.73l-2.8-2.08h5.83c3.04,0,5.31-0.85,6.83-2.56c1.52-1.7,2.28-3.94,2.28-6.71c0-2.56-0.65-4.58-1.96-6.07
				C184.89,58.21,182.98,57.46,180.48,57.46z"/>
			<path class="st0" d="M268.9,54.51l-7.19,2.88l1.84-3.51v43.61l-1.84-2.64l7.19,2.4v6.87h-23.4v-6.87l7.51-2.48l-2.24,2.72V62.25
				l2.16,0.08l-12.86,27.16l-8.63,0.4l-12.3-27.64h2v35.22L219.7,95l6.79,2.24v6.87h-21.81v-6.87l7.19-2.4l-1.84,2.64V53.87
				l1.84,3.43l-7.19-2.4v-6.87l22.37-0.4l11.1,28.35h-1.6l11.82-27.96l20.53-0.4V54.51z"/>
			<path class="st0" d="M113.44,115.83c0,0.49,0.19,0.9,0.56,1.23c0.37,0.33,0.87,0.62,1.48,0.87s1.3,0.48,2.06,0.72
				c0.75,0.24,1.5,0.51,2.23,0.84c0.73,0.32,1.41,0.72,2.03,1.2s1.12,1.08,1.5,1.81c0.38,0.72,0.57,1.61,0.57,2.64
				c0,1.53-0.39,2.78-1.18,3.75c-0.78,0.97-1.83,1.68-3.14,2.14c-1.31,0.46-2.75,0.69-4.32,0.69c-1.08,0-2.18-0.1-3.32-0.31
				c-1.14-0.21-2.25-0.51-3.35-0.93l0.18-5.93h2.91l0.71,3.47l-0.47-0.79c0.55,0.25,1.14,0.45,1.76,0.59
				c0.63,0.14,1.23,0.21,1.82,0.21c0.63,0,1.19-0.08,1.7-0.25c0.51-0.17,0.92-0.41,1.23-0.73c0.31-0.32,0.47-0.73,0.47-1.22
				c0-0.55-0.19-0.99-0.56-1.34c-0.37-0.34-0.87-0.64-1.48-0.88c-0.62-0.24-1.3-0.47-2.04-0.69s-1.48-0.47-2.22-0.78
				c-0.73-0.3-1.41-0.69-2.03-1.16c-0.62-0.47-1.11-1.06-1.48-1.78c-0.37-0.72-0.56-1.61-0.56-2.69c0-1.45,0.34-2.64,1.03-3.57
				c0.69-0.93,1.62-1.63,2.81-2.09c1.18-0.46,2.52-0.69,4.01-0.69c1.04,0,2.14,0.11,3.3,0.32c1.16,0.22,2.32,0.54,3.45,0.97
				l-0.32,5.46h-3.03l-0.71-3.05l0.53,0.5c-0.45-0.16-0.93-0.28-1.42-0.37c-0.5-0.09-1-0.13-1.51-0.13c-0.57,0-1.1,0.06-1.59,0.19
				s-0.88,0.34-1.17,0.63C113.59,114.97,113.44,115.36,113.44,115.83z"/>
			<path class="st0" d="M135.06,131.69c-1.96,0-3.63-0.4-5.01-1.19c-1.38-0.79-2.44-1.97-3.17-3.54c-0.73-1.57-1.1-3.48-1.1-5.73
				c0-1.84,0.23-3.45,0.7-4.83c0.47-1.38,1.14-2.54,2.01-3.47c0.87-0.93,1.91-1.63,3.13-2.09c1.21-0.46,2.59-0.69,4.11-0.69
				c1.49,0,2.82,0.23,4,0.68c1.17,0.45,2.17,1.12,3,2c0.82,0.88,1.45,1.97,1.88,3.26c0.43,1.29,0.65,2.76,0.65,4.41
				c0,2.31-0.42,4.3-1.25,5.98c-0.83,1.67-2.01,2.96-3.52,3.86C138.96,131.24,137.16,131.69,135.06,131.69z M135.41,127.81
				c0.86,0,1.62-0.21,2.26-0.63c0.65-0.42,1.16-1.15,1.53-2.17c0.37-1.03,0.56-2.45,0.56-4.27c0-1.68-0.17-3.02-0.5-4
				c-0.33-0.98-0.81-1.68-1.44-2.09c-0.63-0.41-1.4-0.62-2.32-0.62c-0.86,0-1.61,0.2-2.25,0.6c-0.64,0.4-1.13,1.11-1.47,2.13
				c-0.34,1.02-0.51,2.45-0.51,4.29c0,1.64,0.16,2.96,0.47,3.95c0.31,0.99,0.77,1.7,1.38,2.14
				C133.73,127.59,134.49,127.81,135.41,127.81z"/>
			<path class="st0" d="M159.12,124.61h3v6.7h-15.07v-2.53l2.53-0.85l-0.56,0.94v-15.77l0.56,0.94l-2.53-0.82v-2.53l9.19-0.15v2.53
				l-2.61,0.97l0.5-0.94v15.33l-0.76-0.76h5.7l-0.68,0.79L159.12,124.61z"/>
			<path class="st0" d="M173.87,110.68l9.02-0.15v2.53l-2.5,1l0.53-1.23v10.25c0,1.12-0.11,2.13-0.32,3.04
				c-0.22,0.91-0.55,1.71-1.01,2.39c-0.46,0.69-1.03,1.27-1.72,1.75c-0.69,0.48-1.49,0.84-2.42,1.07c-0.93,0.24-1.99,0.35-3.19,0.35
				c-1.67,0-3.03-0.2-4.08-0.6c-1.06-0.4-1.88-0.93-2.47-1.6c-0.59-0.67-1-1.37-1.25-2.11c-0.24-0.74-0.4-1.46-0.46-2.15
				c-0.06-0.69-0.09-1.26-0.09-1.73v-10.66l0.56,1.2l-2.53-0.82v-2.53l9.05-0.15v2.53l-2.44,1l0.47-1.23v10.66
				c0,0.53,0.02,1.01,0.07,1.45c0.05,0.44,0.13,0.84,0.25,1.19c0.12,0.35,0.3,0.66,0.54,0.91c0.25,0.25,0.57,0.45,0.97,0.57
				c0.4,0.13,0.9,0.19,1.48,0.19c0.61,0,1.11-0.07,1.51-0.21c0.4-0.14,0.73-0.34,1-0.62c0.27-0.27,0.47-0.6,0.62-0.98
				c0.15-0.38,0.24-0.82,0.28-1.31c0.04-0.49,0.06-1.03,0.06-1.62v-10.25l0.44,1.15l-2.38-0.76V110.68z"/>
			<path class="st0" d="M187.56,131.31v-2.53l3.17-0.91l-0.88,1.26v-15.72l1,0.76h-4.38l1.12-0.97l-0.85,3.7h-3.03v-6.37h17.36v6.37
				h-3l-0.82-3.5l1.09,0.76h-4.41l1.03-0.76v15.72l-0.85-1.26l3.11,0.91v2.53H187.56z"/>
			<path class="st0" d="M211,113.06l-2.47,1l0.5-0.73v15.3l-0.5-0.7l2.47,0.85v2.53h-9.05v-2.53l2.41-0.82l-0.44,0.68v-15.3
				l0.62,0.76l-2.59-0.88v-2.53l9.05-0.15V113.06z"/>
			<path class="st0" d="M222.1,131.69c-1.96,0-3.63-0.4-5.01-1.19c-1.38-0.79-2.44-1.97-3.17-3.54c-0.73-1.57-1.1-3.48-1.1-5.73
				c0-1.84,0.24-3.45,0.71-4.83c0.47-1.38,1.14-2.54,2.01-3.47c0.87-0.93,1.91-1.63,3.13-2.09c1.21-0.46,2.58-0.69,4.11-0.69
				c1.49,0,2.82,0.23,4,0.68c1.18,0.45,2.17,1.12,3,2c0.82,0.88,1.45,1.97,1.88,3.26c0.43,1.29,0.65,2.76,0.65,4.41
				c0,2.31-0.42,4.3-1.25,5.98c-0.83,1.67-2.01,2.96-3.52,3.86C226,131.24,224.19,131.69,222.1,131.69z M222.45,127.81
				c0.86,0,1.62-0.21,2.26-0.63c0.65-0.42,1.16-1.15,1.53-2.17c0.37-1.03,0.56-2.45,0.56-4.27c0-1.68-0.17-3.02-0.5-4
				c-0.33-0.98-0.81-1.68-1.44-2.09c-0.63-0.41-1.4-0.62-2.32-0.62c-0.86,0-1.61,0.2-2.25,0.6c-0.64,0.4-1.13,1.11-1.47,2.13
				c-0.34,1.02-0.51,2.45-0.51,4.29c0,1.64,0.16,2.96,0.47,3.95s0.77,1.7,1.38,2.14C220.77,127.59,221.53,127.81,222.45,127.81z"/>
			<path class="st0" d="M246.92,110.68l8.14-0.15v2.53l-2.64,1.03l0.68-1.03v18.24h-5.88l-7.67-15.39h0.71v12.95l-0.73-1l2.7,0.91
				v2.53h-8.14v-2.53l2.7-0.91l-0.73,1v-15.77l0.47,0.91l-2.44-0.79v-2.53l8.02-0.15l7.52,15.04h-0.73v-12.48l0.73,1l-2.7-0.88
				V110.68z"/>
			<path class="st0" d="M261.4,115.83c0,0.49,0.19,0.9,0.56,1.23c0.37,0.33,0.87,0.62,1.48,0.87c0.62,0.24,1.3,0.48,2.06,0.72
				c0.75,0.24,1.5,0.51,2.23,0.84c0.73,0.32,1.41,0.72,2.03,1.2c0.62,0.48,1.12,1.08,1.5,1.81c0.38,0.72,0.57,1.61,0.57,2.64
				c0,1.53-0.39,2.78-1.17,3.75c-0.78,0.97-1.83,1.68-3.14,2.14c-1.31,0.46-2.75,0.69-4.32,0.69c-1.08,0-2.18-0.1-3.32-0.31
				c-1.14-0.21-2.25-0.51-3.35-0.93l0.18-5.93h2.91l0.7,3.47l-0.47-0.79c0.55,0.25,1.13,0.45,1.76,0.59
				c0.63,0.14,1.23,0.21,1.82,0.21c0.63,0,1.19-0.08,1.7-0.25c0.51-0.17,0.92-0.41,1.23-0.73c0.31-0.32,0.47-0.73,0.47-1.22
				c0-0.55-0.19-0.99-0.56-1.34c-0.37-0.34-0.87-0.64-1.48-0.88c-0.62-0.24-1.3-0.47-2.04-0.69c-0.74-0.22-1.48-0.47-2.22-0.78
				c-0.73-0.3-1.41-0.69-2.03-1.16c-0.62-0.47-1.11-1.06-1.48-1.78c-0.37-0.72-0.56-1.61-0.56-2.69c0-1.45,0.34-2.64,1.03-3.57
				s1.62-1.63,2.81-2.09c1.19-0.46,2.52-0.69,4.01-0.69c1.04,0,2.14,0.11,3.31,0.32c1.16,0.22,2.32,0.54,3.45,0.97l-0.32,5.46h-3.03
				l-0.71-3.05l0.53,0.5c-0.45-0.16-0.92-0.28-1.42-0.37c-0.5-0.09-1-0.13-1.51-0.13c-0.57,0-1.1,0.06-1.59,0.19
				c-0.49,0.13-0.88,0.34-1.18,0.63C261.55,114.97,261.4,115.36,261.4,115.83z"/>
		</g>
	</g>
	<g>
		<path class="st0" d="M94.69,130.87H33.94c-0.87,0-1.58-0.71-1.58-1.58v-1.25c0-0.87,0.71-1.58,1.58-1.58h60.75
			c0.87,0,1.58,0.71,1.58,1.58v1.25C96.27,130.17,95.57,130.87,94.69,130.87z"/>
		<path class="st0" d="M66.53,127.93H62.2V63.2c0-1.02,0.35-2.01,0.99-2.81l1.18-1.47l1.18,1.47c0.64,0.8,0.99,1.79,0.99,2.81
			V127.93z"/>
		<path class="st1" d="M66.53,62.76l0.29-0.5c1.05-1.79,2.34-3.44,3.82-4.89l0.47-0.46l-0.22,20.1l-4.36,4.61V62.76z"/>
		<path class="st0" d="M66.53,81.63l5.33-5.61c0.82-0.86,1.79-1.55,2.87-2.04h0c2.06-0.93,4.24-1.56,6.48-1.87l1.59-0.22
			L66.53,88.02V81.63z"/>
		<polygon class="st1" points="66.53,92.08 89.09,69.9 91.52,74.18 66.53,98.57 		"/>
		<path class="st1" d="M66.53,102.53l23.41-22.92c0.7-0.69,1.54-1.22,2.46-1.56l6.06-2.23l-4.68,6.52c-0.24,0.33-0.51,0.65-0.8,0.93
			l-26.45,25.73V102.53z"/>
		<g>
			<path class="st2" d="M74.7,116.12c3.41-0.96,7.69-2.44,11.82-4.62c8.95-4.74,14.03-14.27,14.03-14.27l-0.57-0.02
				c-1.59,0.2-5.38,1.16-11.28,5.47C83.26,106.66,77.72,112.66,74.7,116.12z"/>
			<path class="st0" d="M87.4,100.07L87.4,100.07c-1.17,0.67-2.26,1.48-3.23,2.42l-15.54,15.04c1.08-0.19,3.29-0.63,6.06-1.42
				c3.01-3.46,8.55-9.46,14-13.44c5.9-4.32,9.69-5.27,11.28-5.47l-0.64-0.03C95.17,96.99,91.03,98,87.4,100.07z"/>
		</g>
		<circle class="st2" cx="91.52" cy="70.25" r="4.57"/>
		<circle class="st2" cx="79.02" cy="62.83" r="5.93"/>
		<circle class="st2" cx="64.36" cy="49.73" r="6.44"/>
		<g>
			<path class="st1" d="M93.23,87.11l-26.7,25.99v4.85c0.63-0.1,1.35-0.23,2.08-0.38l27.67-26.8L93.23,87.11z"/>
		</g>
		<circle class="st2" cx="94.7" cy="88.93" r="3.75"/>
		<path class="st1" d="M62.2,62.76l-0.29-0.5c-1.05-1.79-2.34-3.44-3.82-4.89l-0.47-0.46l0.22,20.1l4.36,4.61V62.76z"/>
		<path class="st0" d="M62.2,81.63l-5.33-5.61c-0.82-0.86-1.79-1.55-2.87-2.04h0c-2.06-0.93-4.24-1.56-6.48-1.87l-1.59-0.22
			L62.2,88.02V81.63z"/>
		<polygon class="st1" points="62.2,92.08 39.63,69.9 37.21,74.18 62.2,98.57 		"/>
		<path class="st1" d="M62.2,102.53L38.79,79.61c-0.7-0.69-1.54-1.22-2.46-1.56l-6.06-2.23l4.68,6.52c0.24,0.33,0.51,0.65,0.8,0.93
			l26.45,25.73V102.53z"/>
		<g>
			<path class="st2" d="M54.02,116.12c-3.41-0.96-7.69-2.44-11.82-4.62c-8.95-4.74-14.03-14.27-14.03-14.27l0.57-0.02
				c1.59,0.2,5.38,1.16,11.28,5.47C45.46,106.66,51,112.66,54.02,116.12z"/>
			<path class="st0" d="M41.32,100.07L41.32,100.07c1.17,0.67,2.26,1.48,3.23,2.42l15.54,15.04c-1.08-0.19-3.29-0.63-6.06-1.42
				c-3.01-3.46-8.55-9.46-14-13.44c-5.9-4.32-9.69-5.27-11.28-5.47l0.64-0.03C33.55,96.99,37.69,98,41.32,100.07z"/>
		</g>
		<circle class="st2" cx="37.21" cy="70.25" r="4.57"/>
		<circle class="st2" cx="49.7" cy="62.83" r="5.93"/>
		<g>
			<path class="st1" d="M35.49,87.11l26.7,25.99v4.85c-0.63-0.1-1.35-0.23-2.08-0.38l-27.67-26.8L35.49,87.11z"/>
		</g>
		<circle class="st2" cx="34.02" cy="88.93" r="3.75"/>
	</g>
</g>
</svg>
