<?xml version="1.0" encoding="utf-8"?>
<!-- Generator: Adobe Illustrator 24.0.2, SVG Export Plug-In . SVG Version: 6.00 Build 0)  -->
<svg version="1.1" id="Layer_1" xmlns="http://www.w3.org/2000/svg" xmlns:xlink="http://www.w3.org/1999/xlink" x="0px" y="0px"
	 viewBox="0 0 259.78 147.8" style="enable-background:new 0 0 259.78 147.8;" xml:space="preserve">
<style type="text/css">
	.st0{fill:#335440;}
	.st1{fill:#B19D83;}
	.st2{fill:#466751;}
</style>
<g>
	<path class="st0" d="M153.6,88.84h-48.24c-0.81,0-1.46-0.65-1.46-1.46v-0.61c0-0.81,0.65-1.46,1.46-1.46h48.24
		c0.81,0,1.46,0.65,1.46,1.46v0.61C155.06,88.19,154.41,88.84,153.6,88.84z"/>
	<path class="st0" d="M131.25,86.49h-3.47V34.66c0-0.82,0.28-1.61,0.79-2.25l0.94-1.18l0.94,1.18c0.51,0.64,0.79,1.43,0.79,2.25
		V86.49z"/>
	<path class="st1" d="M131.25,34.31l0.23-0.4c0.84-1.44,1.87-2.75,3.06-3.91l0.37-0.37l-0.18,16.09l-3.49,3.69V34.31z"/>
	<path class="st0" d="M131.25,49.42l4.27-4.49c0.65-0.69,1.43-1.24,2.3-1.63l0,0c1.65-0.74,3.39-1.25,5.18-1.49l1.27-0.17
		l-13.02,12.9V49.42z"/>
	<polygon class="st1" points="131.25,57.79 149.31,40.03 151.25,43.45 131.25,62.98 	"/>
	<path class="st1" d="M131.25,66.15l18.74-18.35c0.56-0.55,1.23-0.97,1.97-1.25l4.85-1.79l-3.74,5.22
		c-0.19,0.27-0.41,0.52-0.64,0.75l-21.18,20.6V66.15z"/>
	<g>
		<path class="st2" d="M137.79,77.03c2.73-0.77,6.16-1.95,9.46-3.7c7.17-3.79,11.23-11.42,11.23-11.42l-0.46-0.02
			c-1.28,0.16-4.3,0.93-9.03,4.38C144.64,69.46,140.21,74.26,137.79,77.03z"/>
		<path class="st0" d="M147.96,64.18L147.96,64.18c-0.94,0.54-1.81,1.19-2.58,1.94l-12.44,12.04c0.87-0.16,2.63-0.51,4.85-1.13
			c2.41-2.77,6.85-7.58,11.21-10.76c4.73-3.46,7.75-4.22,9.03-4.38l-0.51-0.02C154.18,61.72,150.86,62.52,147.96,64.18z"/>
	</g>
	<circle class="st2" cx="151.25" cy="40.3" r="3.66"/>
	<circle class="st2" cx="141.25" cy="34.37" r="4.75"/>
	<circle class="st2" cx="129.51" cy="23.88" r="5.16"/>
	<g>
		<path class="st1" d="M152.62,53.81l-21.38,20.81v3.88c0.5-0.08,1.08-0.18,1.66-0.3l22.15-21.45L152.62,53.81z"/>
	</g>
	<circle class="st2" cx="153.81" cy="55.26" r="3"/>
	<path class="st1" d="M127.78,34.31l-0.23-0.4c-0.84-1.44-1.87-2.75-3.06-3.91l-0.37-0.37l0.18,16.09l3.49,3.69V34.31z"/>
	<path class="st0" d="M127.78,49.42l-4.27-4.49c-0.65-0.69-1.43-1.24-2.3-1.63l0,0c-1.65-0.74-3.39-1.25-5.18-1.49l-1.27-0.17
		l13.02,12.9V49.42z"/>
	<polygon class="st1" points="127.78,57.79 109.71,40.03 107.77,43.45 127.78,62.98 	"/>
	<path class="st1" d="M127.78,66.15L109.04,47.8c-0.56-0.55-1.23-0.97-1.97-1.25l-4.85-1.79l3.74,5.22
		c0.19,0.27,0.41,0.52,0.64,0.75l21.18,20.6V66.15z"/>
	<g>
		<path class="st2" d="M121.23,77.03c-2.73-0.77-6.16-1.95-9.46-3.7c-7.17-3.79-11.23-11.42-11.23-11.42l0.46-0.02
			c1.28,0.16,4.3,0.93,9.03,4.38C114.38,69.46,118.82,74.26,121.23,77.03z"/>
		<path class="st0" d="M111.07,64.18L111.07,64.18c0.94,0.54,1.81,1.19,2.58,1.94l12.44,12.04c-0.87-0.16-2.63-0.51-4.85-1.13
			c-2.41-2.77-6.85-7.58-11.21-10.76c-4.73-3.46-7.75-4.22-9.03-4.38l0.51-0.02C104.85,61.72,108.16,62.52,111.07,64.18z"/>
	</g>
	<circle class="st2" cx="107.77" cy="40.3" r="3.66"/>
	<circle class="st2" cx="117.78" cy="34.37" r="4.75"/>
	<g>
		<path class="st1" d="M106.4,53.81l21.38,20.81v3.88c-0.5-0.08-1.08-0.18-1.66-0.3l-22.15-21.45L106.4,53.81z"/>
	</g>
	<circle class="st2" cx="105.22" cy="55.26" r="3"/>
</g>
<g>
	<g>
		<path class="st0" d="M20.42,110.63c0,0.57,0.22,1.05,0.65,1.43c0.43,0.39,1.01,0.72,1.72,1.01c0.72,0.28,1.51,0.56,2.39,0.84
			c0.87,0.27,1.74,0.6,2.59,0.97c0.85,0.37,1.64,0.84,2.35,1.4c0.72,0.56,1.3,1.26,1.74,2.1c0.44,0.84,0.67,1.87,0.67,3.07
			c0,1.77-0.46,3.22-1.37,4.35c-0.91,1.13-2.13,1.96-3.65,2.49c-1.52,0.53-3.19,0.8-5.01,0.8c-1.25,0-2.54-0.12-3.86-0.36
			c-1.32-0.24-2.61-0.6-3.89-1.07l0.2-6.89h3.38l0.82,4.02l-0.55-0.92c0.64,0.3,1.32,0.52,2.05,0.68c0.73,0.16,1.43,0.24,2.11,0.24
			c0.73,0,1.39-0.1,1.98-0.29c0.59-0.19,1.07-0.48,1.43-0.85c0.36-0.37,0.55-0.85,0.55-1.42c0-0.64-0.22-1.15-0.65-1.55
			c-0.43-0.4-1.01-0.74-1.72-1.02c-0.72-0.28-1.51-0.55-2.37-0.8c-0.86-0.25-1.72-0.55-2.58-0.9c-0.85-0.35-1.64-0.8-2.35-1.35
			c-0.72-0.55-1.29-1.23-1.72-2.06c-0.43-0.83-0.65-1.87-0.65-3.12c0-1.68,0.4-3.06,1.19-4.15c0.8-1.08,1.88-1.89,3.26-2.42
			c1.38-0.53,2.93-0.8,4.66-0.8c1.21,0,2.48,0.13,3.84,0.37c1.35,0.25,2.69,0.63,4.01,1.13l-0.38,6.34h-3.51l-0.82-3.55l0.61,0.58
			c-0.52-0.18-1.07-0.32-1.65-0.43c-0.58-0.1-1.17-0.15-1.76-0.15c-0.66,0-1.27,0.07-1.84,0.22c-0.57,0.15-1.02,0.39-1.37,0.73
			C20.59,109.64,20.42,110.08,20.42,110.63z"/>
		<path class="st0" d="M43.82,120.42h-2.49l1.19-0.89v6.24l-0.82-1.09l3.79,0.99v2.93H34.3v-2.93l3.17-1.06l-0.89,1.16v-18.39
			l1.02,1.23l-3.31-1.02v-2.93l8.32-0.17h2.73c1.96,0,3.55,0.34,4.79,1.02c1.24,0.68,2.15,1.6,2.73,2.75
			c0.58,1.15,0.87,2.44,0.87,3.87c0,1.52-0.35,2.92-1.04,4.18c-0.69,1.26-1.77,2.26-3.22,3C48.03,120.05,46.14,120.42,43.82,120.42z
			 M44.44,108.68h-2.8l0.89-0.89v9.28l-1.19-0.89h2.49c1.3,0,2.27-0.36,2.92-1.09c0.65-0.73,0.97-1.68,0.97-2.87
			c0-1.09-0.28-1.96-0.83-2.59C46.32,109,45.5,108.68,44.44,108.68z"/>
		<path class="st0" d="M82.2,107.42l-3.07,1.23l0.78-1.5v18.63l-0.78-1.13l3.07,1.02v2.93H72.2v-2.93l3.21-1.06l-0.96,1.16v-15.04
			l0.92,0.03l-5.49,11.6l-3.68,0.17l-5.25-11.8h0.85v15.04l-0.61-1.06l2.9,0.95v2.93h-9.31v-2.93l3.07-1.02l-0.78,1.13v-18.63
			l0.78,1.47l-3.07-1.02v-2.93l9.55-0.17l4.74,12.11h-0.68l5.05-11.94l8.77-0.17V107.42z"/>
		<path class="st0" d="M96.32,110.63c0,0.57,0.22,1.05,0.65,1.43c0.43,0.39,1.01,0.72,1.72,1.01c0.72,0.28,1.51,0.56,2.39,0.84
			c0.87,0.27,1.74,0.6,2.59,0.97c0.85,0.37,1.64,0.84,2.35,1.4c0.72,0.56,1.3,1.26,1.74,2.1c0.44,0.84,0.67,1.87,0.67,3.07
			c0,1.77-0.46,3.22-1.37,4.35c-0.91,1.13-2.13,1.96-3.65,2.49s-3.19,0.8-5.01,0.8c-1.25,0-2.54-0.12-3.86-0.36
			c-1.32-0.24-2.61-0.6-3.89-1.07l0.2-6.89h3.38l0.82,4.02l-0.55-0.92c0.64,0.3,1.32,0.52,2.05,0.68c0.73,0.16,1.43,0.24,2.11,0.24
			c0.73,0,1.39-0.1,1.98-0.29c0.59-0.19,1.07-0.48,1.43-0.85c0.36-0.37,0.55-0.85,0.55-1.42c0-0.64-0.22-1.15-0.65-1.55
			c-0.43-0.4-1.01-0.74-1.72-1.02c-0.72-0.28-1.51-0.55-2.37-0.8c-0.86-0.25-1.72-0.55-2.58-0.9c-0.85-0.35-1.64-0.8-2.35-1.35
			c-0.72-0.55-1.29-1.23-1.72-2.06c-0.43-0.83-0.65-1.87-0.65-3.12c0-1.68,0.4-3.06,1.19-4.15c0.8-1.08,1.88-1.89,3.26-2.42
			c1.38-0.53,2.93-0.8,4.66-0.8c1.21,0,2.48,0.13,3.84,0.37c1.35,0.25,2.69,0.63,4.01,1.13l-0.38,6.34h-3.51l-0.82-3.55l0.61,0.58
			c-0.52-0.18-1.07-0.32-1.65-0.43c-0.58-0.1-1.17-0.15-1.76-0.15c-0.66,0-1.27,0.07-1.84,0.22c-0.57,0.15-1.02,0.39-1.37,0.73
			C96.49,109.64,96.32,110.08,96.32,110.63z"/>
		<path class="st0" d="M119.55,109.84c2.82,0,5,0.8,6.53,2.4c1.54,1.6,2.3,3.89,2.3,6.87c0,2.07-0.38,3.84-1.14,5.32
			c-0.76,1.48-1.85,2.62-3.26,3.41c-1.41,0.8-3.09,1.19-5.05,1.19c-2.8,0-4.95-0.8-6.46-2.41c-1.51-1.6-2.27-3.89-2.27-6.87
			c0-2.09,0.37-3.88,1.11-5.36s1.81-2.61,3.21-3.39C115.92,110.23,117.6,109.84,119.55,109.84z M119.31,113.9
			c-1.09,0-1.88,0.44-2.35,1.31c-0.48,0.88-0.72,2.3-0.72,4.28c0,1.98,0.23,3.39,0.7,4.23c0.47,0.84,1.22,1.26,2.27,1.26
			c0.75,0,1.35-0.2,1.81-0.6c0.45-0.4,0.79-1.01,1.01-1.84c0.22-0.83,0.32-1.89,0.32-3.19c0-1.96-0.24-3.35-0.72-4.2
			C121.16,114.32,120.38,113.9,119.31,113.9z"/>
		<path class="st0" d="M137.39,125.3l-0.38-0.48l2.46,0.85v2.93h-9.96v-2.93l2.46-0.85l-0.37,0.48v-19.68l0.34,0.34l-2.42-0.78v-2.9
			l7.88-0.34V125.3z"/>
		<path class="st0" d="M147.56,129.05c-1.52,0-2.81-0.5-3.85-1.5c-1.05-1-1.57-2.52-1.57-4.57v-9.52l0.51,0.78l-2.59-0.92v-2.9
			l7.88-0.27v11.91c0,0.89,0.2,1.55,0.6,1.98c0.4,0.43,0.93,0.65,1.59,0.65c0.5,0,1.05-0.13,1.65-0.39c0.6-0.26,1.21-0.67,1.83-1.21
			l-0.34,0.95v-10.71l0.48,0.92l-2.56-0.92v-2.9l7.88-0.31v15.52l-0.68-0.95l2.73,0.99v2.93l-6.58,0.31l-0.75-3.34l0.78,0.24
			c-1.11,1.09-2.28,1.91-3.5,2.44C149.84,128.78,148.67,129.05,147.56,129.05z"/>
		<path class="st0" d="M169.36,129.05c-1.73,0-3.03-0.52-3.91-1.55c-0.88-1.04-1.31-2.58-1.31-4.62v-9.52l0.72,0.72h-3.17v-3.04
			l3.24-0.99l-0.78,0.99v-4.74l5.8-1.06v5.8l-0.58-0.75h5.15l-0.1,3.79h-5.05l0.58-0.72v8.73c0,0.96,0.15,1.65,0.44,2.08
			c0.3,0.43,0.75,0.65,1.36,0.65c0.34,0,0.72-0.05,1.14-0.15c0.42-0.1,0.89-0.24,1.42-0.43l1.06,3.1
			C173.29,128.48,171.29,129.05,169.36,129.05z"/>
		<path class="st0" d="M184.37,125.3l-0.37-0.48l2.46,0.85v2.93h-9.96v-2.93l2.46-0.85l-0.38,0.48v-11.5l0.34,0.34l-2.42-0.82v-2.9
			l7.88-0.27V125.3z M181.36,108c-0.98,0-1.77-0.28-2.37-0.84c-0.6-0.56-0.9-1.36-0.9-2.4c0-1.09,0.31-1.91,0.94-2.44
			c0.62-0.53,1.42-0.8,2.37-0.8c0.93,0,1.71,0.26,2.32,0.78c0.61,0.52,0.92,1.34,0.92,2.46c0,1.07-0.31,1.88-0.94,2.42
			C183.08,107.73,182.3,108,181.36,108z"/>
		<path class="st0" d="M196.92,109.84c2.82,0,5,0.8,6.53,2.4c1.54,1.6,2.3,3.89,2.3,6.87c0,2.07-0.38,3.84-1.14,5.32
			c-0.76,1.48-1.85,2.62-3.26,3.41c-1.41,0.8-3.09,1.19-5.05,1.19c-2.8,0-4.95-0.8-6.46-2.41c-1.51-1.6-2.27-3.89-2.27-6.87
			c0-2.09,0.37-3.88,1.11-5.36c0.74-1.48,1.81-2.61,3.21-3.39C193.29,110.23,194.96,109.84,196.92,109.84z M196.68,113.9
			c-1.09,0-1.88,0.44-2.35,1.31c-0.48,0.88-0.72,2.3-0.72,4.28c0,1.98,0.23,3.39,0.7,4.23c0.46,0.84,1.22,1.26,2.27,1.26
			c0.75,0,1.35-0.2,1.81-0.6c0.45-0.4,0.79-1.01,1.01-1.84c0.22-0.83,0.32-1.89,0.32-3.19c0-1.96-0.24-3.35-0.72-4.2
			C198.52,114.32,197.75,113.9,196.68,113.9z"/>
		<path class="st0" d="M207.36,128.6v-2.93l2.76-0.92l-0.68,0.82v-12.21l0.68,0.92l-2.76-0.96v-2.9l6.58-0.31l0.72,3.21l-0.72-0.24
			c1.09-1.09,2.25-1.9,3.48-2.44c1.23-0.53,2.4-0.8,3.51-0.8c1.52,0,2.81,0.49,3.86,1.47c1.05,0.98,1.56,2.47,1.54,4.47v9.79
			l-0.48-0.78l2.56,0.89v2.93h-9.65v-2.93l2.42-0.85l-0.61,0.85v-8.7c0-0.96-0.2-1.65-0.61-2.1c-0.41-0.44-0.94-0.67-1.6-0.67
			c-0.52,0-1.09,0.14-1.69,0.41c-0.6,0.27-1.2,0.67-1.79,1.19l0.37-0.78v10.64l-0.51-0.82l2.28,0.82v2.93H207.36z"/>
		<path class="st0" d="M235.64,115.03c0,0.43,0.22,0.79,0.67,1.07c0.44,0.28,1.02,0.53,1.74,0.73c0.72,0.2,1.48,0.43,2.3,0.67
			c0.82,0.24,1.59,0.56,2.3,0.97c0.72,0.41,1.3,0.94,1.76,1.6s0.68,1.51,0.68,2.56c0,1.46-0.39,2.66-1.18,3.62
			c-0.78,0.96-1.84,1.67-3.17,2.13c-1.33,0.47-2.84,0.7-4.52,0.7c-0.98,0-2.01-0.09-3.09-0.26c-1.08-0.17-2.19-0.4-3.33-0.7
			l0.2-5.39h3.58l0.44,2.87l-0.48-0.78c0.43,0.16,0.91,0.27,1.43,0.34c0.52,0.07,0.97,0.1,1.33,0.1c0.5,0,0.98-0.05,1.43-0.15
			c0.45-0.1,0.82-0.27,1.09-0.51c0.27-0.24,0.41-0.54,0.41-0.9c0-0.45-0.23-0.82-0.68-1.09c-0.46-0.27-1.04-0.51-1.76-0.7
			c-0.72-0.19-1.47-0.41-2.25-0.67c-0.79-0.25-1.54-0.59-2.25-1.01c-0.72-0.42-1.3-0.99-1.74-1.71c-0.44-0.72-0.66-1.63-0.66-2.75
			c0-1.41,0.34-2.55,1.02-3.43c0.68-0.87,1.62-1.52,2.81-1.93c1.19-0.41,2.52-0.61,3.98-0.61c1.02,0,2.09,0.09,3.19,0.26
			c1.1,0.17,2.24,0.43,3.39,0.77l-0.17,4.88h-3.68l-0.58-2.63l0.79,0.85c-1.02-0.27-1.9-0.41-2.63-0.41c-0.73,0-1.31,0.13-1.74,0.39
			C235.85,114.18,235.64,114.55,235.64,115.03z"/>
	</g>
</g>
</svg>
